<svg width="562" height="422" viewBox="0 0 562 422" fill="none" xmlns="http://www.w3.org/2000/svg">
<g clip-path="url(#clip0)">
<path d="M398.222 163.373H350.217V193.832H398.222V163.373Z" fill="#02C39B"/>
<path d="M323.423 211H275.418V241.459H323.423V211Z" fill="#02C39B"/>
<path d="M538.556 173.341V108.546H502.273V66.4567H477.712V108.546H441.429V173.341H421.334V27.6903H380.586V13.8451H326.44V0H272.854V13.8451H222.057V27.6903H177.96V172.787H154.516V107.992H118.233V65.9029H93.672V107.992H57.3891V172.787H33.9448V402.617H87.5318V321.207H124.373V402.617H268.388V307.916H330.906V402.617H417.985V403.171H471.572V321.761H508.413V403.171H562V173.341H538.556ZM53.2027 201.031H74.4142V217.646H53.2027V201.031ZM53.4817 247.551H74.6933V264.165H53.4817V247.551ZM74.9724 310.685H53.7608V294.071H74.9724V310.685ZM130.513 160.604H81.3916V150.635H130.513V160.604ZM130.513 146.205H81.3916V136.236H130.513V146.205ZM130.513 131.806H81.3916V121.837H130.513V131.806ZM137.491 201.031H158.702V217.646H137.491V201.031ZM137.77 247.551H158.981V264.165H137.77V247.551ZM159.26 310.685H138.049V294.071H159.26V310.685ZM246.06 282.995H206.986V265.827H246.06V282.995ZM246.06 233.706H206.986V216.538H246.06V233.706ZM246.06 184.417H206.986V167.249H246.06V184.417ZM246.06 135.129H206.986V117.961H246.06V135.129ZM246.06 85.8399H206.986V68.6719H246.06V85.8399ZM319.184 282.995H280.11V265.827H319.184V282.995ZM319.184 233.706H280.11V216.538H319.184V233.706ZM319.184 184.417H280.11V167.249H319.184V184.417ZM319.184 135.129H280.11V117.961H319.184V135.129ZM319.184 85.8399H280.11V68.6719H319.184V85.8399ZM392.308 282.995H353.234V265.827H392.308V282.995ZM392.308 233.706H353.234V216.538H392.308V233.706ZM392.308 184.417H353.234V167.249H392.308V184.417ZM392.308 135.129H353.234V117.961H392.308V135.129ZM392.308 85.8399H353.234V68.6719H392.308V85.8399ZM437.243 201.585H458.454V218.199H437.243V201.585ZM437.522 248.105H458.733V264.719H437.522V248.105ZM459.012 311.239H437.801V294.625H459.012V311.239ZM514.553 161.157H465.432V151.189H514.553V161.157ZM514.553 146.759H465.432V136.79H514.553V146.759ZM514.553 132.36H465.432V122.391H514.553V132.36ZM521.531 201.585H542.742V218.199H521.531V201.585ZM521.81 248.105H543.021V264.719H521.81V248.105ZM543.3 311.239H522.089V294.625H543.3V311.239Z" fill="#F2F2F2"/>
<path d="M66.9838 346.522C66.8277 348.712 66.5833 351.163 66.2054 353.738L73.0298 346.229L73.0674 346.355C72.65 344.547 71.9781 342.808 71.0713 341.187L71.1149 341.306L66.9838 346.522Z" fill="#02C39B"/>
<path d="M67.0105 346.137L71.0122 341.085C70.1609 339.543 68.9294 338.241 67.433 337.301C67.3597 337.257 67.2859 337.216 67.2122 337.176C67.2341 337.773 67.3389 341.276 67.0105 346.137Z" fill="#02C39B"/>
<path d="M63.4001 365.945C63.2243 366.477 63.0427 366.998 62.8553 367.51L72.9055 361.664L72.9196 361.811C73.1296 360.902 73.3045 359.992 73.4442 359.083L63.4092 366.012L63.4001 365.945Z" fill="#02C39B"/>
<path d="M64.7979 361.038L73.8494 353.632L73.8751 353.771C73.9071 351.322 73.6466 348.878 73.099 346.49L66.1446 354.142C65.7793 356.553 65.3304 358.852 64.7979 361.038Z" fill="#02C39B"/>
<path d="M65.9893 353.996L55.1586 342.007L55.2165 341.871C54.1984 343.293 53.3278 344.814 52.6178 346.41L64.9773 359.465C65.4008 357.56 65.7314 355.715 65.9893 353.996Z" fill="#02C39B"/>
<path d="M52.5009 346.681L52.5013 346.681C52.5208 346.636 52.5378 346.587 52.5575 346.543L52.5009 346.681Z" fill="#02C39B"/>
<path d="M51.8983 348.15L51.8425 348.287C51.8602 348.24 51.8807 348.197 51.8986 348.151L51.8983 348.15Z" fill="#02C39B"/>
<path d="M64.906 359.783L52.5013 346.68C52.2917 347.157 52.0907 347.647 51.8986 348.151L64.5769 361.169C64.6922 360.705 64.8019 360.243 64.906 359.783Z" fill="#02C39B"/>
<path d="M73.4708 358.909C73.7178 357.26 73.8524 355.598 73.8737 353.932L64.6997 361.438C64.3362 362.894 63.9363 364.293 63.4999 365.636L73.4513 358.765L73.4708 358.909Z" fill="#02C39B"/>
<path d="M50.2536 359.842L60.2947 372.84C61.1197 371.258 61.8483 369.628 62.4767 367.959L50.2245 355.192C50.1031 356.788 50.0896 358.39 50.1842 359.988L50.2536 359.842Z" fill="#02C39B"/>
<path d="M67.0287 337.165L67.1186 337.125C64.9196 335.959 62.539 336.084 60.2572 337.266L66.8335 346.128C67.1875 340.868 67.031 337.217 67.0287 337.165Z" fill="#02C39B"/>
<path d="M62.5296 368.38C61.9533 369.881 61.2949 371.35 60.5575 372.781L70.6578 367.596L70.668 367.74C71.4289 366.465 72.0239 365.099 72.4388 363.675C72.5993 363.115 72.7457 362.553 72.8781 361.99L62.7081 367.906C62.6488 368.064 62.59 368.223 62.5296 368.38Z" fill="#02C39B"/>
<path d="M66.8065 346.52L60.0793 337.455L60.1424 337.326C58.217 338.431 56.5623 339.946 55.2975 341.761L66.04 353.653C66.4118 351.107 66.6525 348.686 66.8065 346.52Z" fill="#02C39B"/>
<path d="M62.5867 367.667C63.3357 365.64 63.9741 363.574 64.4991 361.48L51.7892 348.428C51.4867 349.244 51.2088 350.092 50.9556 350.972C50.6042 352.235 50.3697 353.527 50.2549 354.832L62.5771 367.672L62.5867 367.667Z" fill="#02C39B"/>
<path d="M75.6416 381.747C74.113 383.335 72.3494 385.068 70.4031 386.812L80.4864 385.347L80.4345 385.468C81.2748 383.812 81.8757 382.047 82.2193 380.225L82.1766 380.344L75.6416 381.747Z" fill="#02C39B"/>
<path d="M81.9155 374.929C81.8869 374.849 81.8563 374.771 81.8255 374.693C81.4588 375.167 79.2874 377.931 75.9092 381.468L82.2395 380.108C82.5747 378.383 82.4632 376.601 81.9155 374.929Z" fill="#02C39B"/>
<path d="M60.3944 394.439C59.9174 394.737 59.4422 395.024 58.9688 395.3L70.4678 397.157L70.3843 397.279C71.1305 396.711 71.8496 396.122 72.5416 395.51L60.3584 394.496L60.3944 394.439Z" fill="#02C39B"/>
<path d="M64.6255 391.544L76.3581 391.568L76.2888 391.691C77.8877 389.825 79.2583 387.778 80.3719 385.592L70.0963 387.085C68.2646 388.711 66.441 390.198 64.6255 391.544Z" fill="#02C39B"/>
<path d="M60.67 394.264L72.7517 395.27L72.6746 395.392C73.9244 394.279 75.097 393.084 76.1844 391.814L64.2931 391.79C63.0774 392.681 61.8697 393.506 60.67 394.264Z" fill="#02C39B"/>
<path d="M45.8722 400.196C45.9578 400.11 46.0484 400.017 46.1377 399.926C48.6013 399.536 51.0086 398.854 53.3076 397.893L53.636 389.255C53.7334 389.035 53.828 388.813 53.9199 388.59L53.5705 397.784C55.223 397.088 56.8318 396.294 58.3884 395.406L57.2665 379.347C57.353 379.302 57.4401 379.257 57.5298 379.21L58.6504 395.248L58.6614 395.25C60.5412 394.163 62.3607 392.976 64.1118 391.695L62.8901 375.891C62.9766 375.829 63.0629 375.767 63.1496 375.703L64.3712 391.505C64.7588 391.221 65.1403 390.934 65.5157 390.646L64.5079 374.648C64.5942 374.578 64.6804 374.508 64.7665 374.436L65.7751 390.446C67.3262 389.247 68.7669 388.035 70.0705 386.875L69.4365 370.787L69.5683 370.719C69.1181 370.835 68.6604 370.974 68.199 371.124C69.0668 370.141 69.8474 369.085 70.5321 367.968L60.3352 373.203C59.6294 374.533 58.8355 375.816 57.9587 377.042C57.7765 377.213 57.5942 377.383 57.4147 377.561L57.4281 377.753C57.3448 377.862 57.2621 377.972 57.1779 378.079L57.1598 377.82C57.0311 377.951 56.9055 378.089 56.7783 378.224C58.0696 376.624 59.2029 374.905 60.1625 373.09L50.1949 360.188C50.2628 361.341 50.3764 362.502 50.5226 363.654C49.5972 362.161 48.4733 360.799 47.1812 359.604L47.2597 359.703L44.9561 365.931C45.4901 368.062 46.0211 370.467 46.464 373.032L50.5577 363.925C50.5764 364.067 50.5963 364.208 50.6159 364.35L46.532 373.435C46.9361 375.841 47.2254 378.165 47.3999 380.407L52.3015 372.768C52.3295 372.878 52.3575 372.988 52.3855 373.096L47.4311 380.817C47.5389 382.313 47.5945 383.766 47.5979 385.178L53.5896 377.335C53.6216 377.438 53.6528 377.538 53.6838 377.637L47.6288 385.563L47.5993 385.502C47.5976 386.061 47.5874 386.613 47.5688 387.158L54.3274 379.608C54.3633 379.713 54.3966 379.81 54.4274 379.899L47.5519 387.579C47.5448 387.748 47.5386 387.917 47.5299 388.084C47.4494 389.689 47.281 391.288 47.0253 392.874L47.6776 392.219C47.554 392.473 47.4337 392.724 47.3166 392.971L46.9454 393.344C46.9029 393.586 46.8543 393.823 46.8076 394.062C46.6707 394.36 46.5387 394.651 46.4117 394.935C46.5343 394.391 46.6486 393.843 46.7462 393.29L33.2471 384.077C36.7689 393.016 43.4009 401.519 43.8254 402.059C44.1701 401.42 44.4833 400.763 44.7708 400.092C44.8543 400.084 44.9378 400.077 45.0213 400.068C44.9868 400.15 44.951 400.231 44.9158 400.313C44.8738 400.318 44.8311 400.324 44.7891 400.328C44.8218 400.338 44.8611 400.348 44.8966 400.358C44.6941 400.826 44.4842 401.287 44.2591 401.732C44.5537 401.469 45.0025 401.054 45.539 400.527C48.7134 401.331 57.2648 403.05 64.5869 400.51L53.3684 398.089C50.9676 399.098 48.4495 399.806 45.8722 400.196ZM53.7554 386.112L54.0244 385.842L54.009 386.247L53.74 386.517L53.7554 386.112Z" fill="#02C39B"/>
<path d="M81.6912 374.569L81.7862 374.595C80.8419 372.306 78.9279 370.896 76.4107 370.362L75.7786 381.349C79.4326 377.522 81.6594 374.611 81.6912 374.569Z" fill="#02C39B"/>
<path d="M58.1589 395.763C56.7498 396.555 55.2983 397.27 53.8109 397.905L64.9231 400.303L64.8382 400.42C66.2443 399.92 67.5807 399.244 68.8156 398.41C69.2993 398.08 69.7732 397.74 70.2372 397.39L58.6011 395.511C58.4537 395.595 58.306 395.681 58.1589 395.763Z" fill="#02C39B"/>
<path d="M70.3299 386.642C72.2529 384.917 73.9951 383.204 75.5057 381.634L76.1525 370.395L76.2841 370.335C74.0906 369.968 71.8424 370.088 69.7012 370.685L70.3299 386.642Z" fill="#02C39B"/>
<path d="M47.0932 359.525C45.8033 358.32 44.2265 357.459 42.5102 357.023C42.427 357.005 42.3442 356.988 42.2615 356.973C42.4682 357.533 43.6593 360.833 44.8616 365.557L47.0932 359.525Z" fill="#02C39B"/>
<path d="M46.3389 373.344L32.3032 365.263L32.3161 365.116C31.791 366.781 31.4367 368.494 31.2587 370.23L47.0804 378.856C46.8895 376.914 46.6291 375.058 46.3389 373.344Z" fill="#02C39B"/>
<path d="M31.2316 370.522L31.2321 370.523C31.2369 370.474 31.2379 370.423 31.2429 370.375L31.2316 370.522Z" fill="#02C39B"/>
<path d="M31.1166 372.106L31.1063 372.253C31.1085 372.203 31.1146 372.156 31.117 372.106L31.1166 372.106Z" fill="#02C39B"/>
<path d="M47.1117 379.18L31.2321 370.522C31.1812 371.04 31.1428 371.568 31.1171 372.106L47.2305 380.599C47.1954 380.122 47.1558 379.649 47.1117 379.18Z" fill="#02C39B"/>
<path d="M47.3485 387.701L31.7186 379.316C32.1004 380.871 32.5869 382.399 33.1746 383.89L33.1951 383.73L46.7939 393.011C47.0856 391.254 47.2708 389.48 47.3485 387.701Z" fill="#02C39B"/>
<path d="M42.0836 357.018L42.1567 356.953C39.7022 356.519 37.4771 357.368 35.6753 359.191L44.6906 365.603C43.3885 360.492 42.1022 357.067 42.0836 357.018Z" fill="#02C39B"/>
<path d="M44.7868 365.984L35.5648 359.425L35.5846 359.283C34.0977 360.924 32.9961 362.873 32.3588 364.987L46.2802 373.002C45.8405 370.467 45.315 368.09 44.7868 365.984Z" fill="#02C39B"/>
<path d="M47.3619 387.389C47.4427 385.231 47.4064 383.071 47.253 380.918L31.0995 372.404C31.0657 373.272 31.0656 374.163 31.0992 375.079C31.1584 376.387 31.3379 377.688 31.6353 378.964L47.3545 387.397L47.3619 387.389Z" fill="#02C39B"/>
<path d="M544.801 344.86C544.645 347.051 544.401 349.501 544.023 352.076L550.847 344.567L550.885 344.693C550.467 342.886 549.795 341.146 548.889 339.525L548.932 339.644L544.801 344.86Z" fill="#02C39B"/>
<path d="M544.828 344.476L548.83 339.423C547.978 337.882 546.747 336.58 545.25 335.639C545.177 335.596 545.103 335.555 545.03 335.514C545.052 336.111 545.156 339.614 544.828 344.476Z" fill="#02C39B"/>
<path d="M541.218 364.284C541.042 364.815 540.86 365.337 540.673 365.849L550.723 360.003L550.737 360.149C550.947 359.24 551.122 358.331 551.262 357.422L541.227 364.351L541.218 364.284Z" fill="#02C39B"/>
<path d="M542.615 359.377L551.667 351.971L551.693 352.109C551.725 349.66 551.464 347.216 550.917 344.828L543.962 352.48C543.597 354.892 543.148 357.191 542.615 359.377Z" fill="#02C39B"/>
<path d="M543.807 352.335L532.976 340.345L533.034 340.21C532.016 341.632 531.145 343.153 530.435 344.748L542.795 357.804C543.218 355.898 543.549 354.054 543.807 352.335Z" fill="#02C39B"/>
<path d="M530.318 345.019L530.319 345.02C530.338 344.975 530.355 344.926 530.375 344.882L530.318 345.019Z" fill="#02C39B"/>
<path d="M542.723 358.122L530.319 345.019C530.109 345.495 529.908 345.985 529.716 346.489L542.394 359.508C542.51 359.043 542.619 358.581 542.723 358.122Z" fill="#02C39B"/>
<path d="M529.716 346.489L529.66 346.626C529.678 346.579 529.698 346.536 529.716 346.489L529.716 346.489Z" fill="#02C39B"/>
<path d="M551.288 357.247C551.535 355.599 551.67 353.936 551.691 352.27L542.517 359.776C542.154 361.232 541.754 362.631 541.317 363.975L551.269 357.104L551.288 357.247Z" fill="#02C39B"/>
<path d="M528.071 358.181L538.112 371.178C538.937 369.596 539.666 367.967 540.294 366.298L528.042 353.531C527.92 355.127 527.907 356.729 528.002 358.327L528.071 358.181Z" fill="#02C39B"/>
<path d="M544.846 335.504L544.936 335.464C542.737 334.298 540.356 334.423 538.074 335.605L544.651 344.467C545.005 339.207 544.848 335.556 544.846 335.504Z" fill="#02C39B"/>
<path d="M540.347 366.718C539.771 368.22 539.112 369.689 538.375 371.119L548.475 365.934L548.485 366.078C549.246 364.803 549.841 363.437 550.256 362.013C550.417 361.453 550.563 360.891 550.695 360.328L540.525 366.244C540.466 366.403 540.407 366.562 540.347 366.718Z" fill="#02C39B"/>
<path d="M544.624 344.859L537.897 335.793L537.96 335.664C536.034 336.77 534.38 338.284 533.115 340.1L543.857 351.992C544.229 349.446 544.47 347.024 544.624 344.859Z" fill="#02C39B"/>
<path d="M540.404 366.005C541.153 363.978 541.791 361.913 542.316 359.818L529.607 346.767C529.304 347.582 529.026 348.43 528.773 349.311C528.421 350.573 528.187 351.865 528.072 353.17L540.394 366.011L540.404 366.005Z" fill="#02C39B"/>
<path d="M553.459 380.086C551.93 381.674 550.167 383.407 548.22 385.151L558.304 383.686L558.252 383.807C559.092 382.151 559.693 380.386 560.037 378.563L559.994 378.682L553.459 380.086Z" fill="#02C39B"/>
<path d="M559.733 373.268C559.704 373.188 559.674 373.11 559.643 373.032C559.276 373.505 557.105 376.27 553.727 379.806L560.057 378.447C560.392 376.721 560.281 374.939 559.733 373.268Z" fill="#02C39B"/>
<path d="M538.212 392.778C537.735 393.076 537.26 393.363 536.786 393.638L548.285 395.495L548.202 395.617C548.948 395.05 549.667 394.46 550.359 393.849L538.176 392.835L538.212 392.778Z" fill="#02C39B"/>
<path d="M542.443 389.883L554.176 389.906L554.106 390.029C555.705 388.164 557.076 386.116 558.189 383.931L547.914 385.423C546.082 387.05 544.258 388.536 542.443 389.883Z" fill="#02C39B"/>
<path d="M538.487 392.603L550.569 393.608L550.492 393.731C551.742 392.618 552.914 391.422 554.002 390.152L542.111 390.128C540.895 391.02 539.687 391.844 538.487 392.603Z" fill="#02C39B"/>
<path d="M523.689 398.535C523.775 398.449 523.866 398.356 523.955 398.264C526.418 397.875 528.826 397.193 531.125 396.232L531.453 387.593C531.551 387.373 531.645 387.152 531.737 386.929L531.388 396.123C533.04 395.426 534.649 394.632 536.206 393.745L535.084 377.685C535.17 377.641 535.257 377.595 535.347 377.548L536.468 393.587L536.479 393.589C538.358 392.502 540.178 391.315 541.929 390.034L540.707 374.23C540.794 374.167 540.88 374.106 540.967 374.042L542.188 389.844C542.576 389.559 542.957 389.273 543.333 388.985L542.325 372.987C542.411 372.917 542.498 372.846 542.584 372.775L543.592 388.785C545.143 387.585 546.584 386.374 547.888 385.213L547.254 369.125L547.385 369.058C546.935 369.174 546.478 369.312 546.016 369.463C546.884 368.48 547.665 367.424 548.349 366.307L538.152 371.541C537.447 372.872 536.653 374.154 535.776 375.381C535.594 375.551 535.411 375.722 535.232 375.9L535.245 376.092C535.162 376.201 535.079 376.31 534.995 376.417L534.977 376.158C534.848 376.289 534.723 376.428 534.596 376.562C535.887 374.963 537.02 373.244 537.98 371.429L528.012 358.527C528.08 359.68 528.194 360.841 528.34 361.992C527.414 360.5 526.29 359.137 524.998 357.942L525.077 358.042L522.773 364.269C523.307 366.401 523.838 368.806 524.281 371.371L528.375 362.264C528.394 362.406 528.413 362.547 528.433 362.689L524.349 371.774C524.753 374.179 525.043 376.503 525.217 378.745L530.119 371.107C530.147 371.217 530.175 371.326 530.203 371.435L525.248 379.156C525.356 380.651 525.412 382.105 525.415 383.516L531.407 375.673C531.439 375.777 531.47 375.877 531.501 375.976L525.446 383.902L525.417 383.841C525.415 384.4 525.405 384.952 525.386 385.496L532.145 377.947C532.181 378.052 532.214 378.149 532.245 378.237L525.369 385.917C525.362 386.086 525.356 386.256 525.347 386.423C525.267 388.028 525.098 389.627 524.843 391.213L525.495 390.558C525.371 390.812 525.251 391.063 525.134 391.31L524.763 391.683C524.72 391.925 524.672 392.162 524.625 392.4C524.488 392.699 524.356 392.99 524.229 393.274C524.352 392.729 524.466 392.182 524.563 391.629L511.064 382.415C514.586 391.355 521.218 399.858 521.643 400.398C521.987 399.759 522.301 399.102 522.588 398.431C522.672 398.423 522.755 398.415 522.839 398.407C522.804 398.489 522.768 398.57 522.733 398.652C522.691 398.656 522.648 398.663 522.606 398.667C522.639 398.676 522.678 398.687 522.714 398.696C522.511 399.165 522.301 399.626 522.076 400.071C522.371 399.808 522.82 399.393 523.356 398.866C526.531 399.67 535.082 401.389 542.404 398.849L531.186 396.428C528.785 397.436 526.267 398.144 523.689 398.535ZM531.573 384.451L531.842 384.181L531.826 384.586L531.557 384.856L531.573 384.451Z" fill="#02C39B"/>
<path d="M559.509 372.908L559.604 372.934C558.659 370.644 556.745 369.234 554.228 368.701L553.596 379.688C557.25 375.861 559.477 372.949 559.509 372.908Z" fill="#02C39B"/>
<path d="M535.976 394.102C534.567 394.893 533.116 395.608 531.628 396.243L542.74 398.641L542.656 398.759C544.062 398.258 545.398 397.583 546.633 396.749C547.117 396.419 547.59 396.079 548.055 395.729L536.419 393.85C536.271 393.934 536.123 394.02 535.976 394.102Z" fill="#02C39B"/>
<path d="M548.147 384.981C550.07 383.255 551.813 381.543 553.323 379.972L553.97 368.733L554.101 368.674C551.908 368.307 549.66 368.426 547.519 369.024L548.147 384.981Z" fill="#02C39B"/>
<path d="M524.911 357.863C523.621 356.658 522.044 355.798 520.328 355.362C520.244 355.343 520.162 355.327 520.079 355.311C520.286 355.872 521.477 359.171 522.679 363.895L524.911 357.863Z" fill="#02C39B"/>
<path d="M524.156 371.683L510.121 363.602L510.134 363.455C509.608 365.12 509.254 366.833 509.076 368.568L524.898 377.194C524.707 375.252 524.447 373.396 524.156 371.683Z" fill="#02C39B"/>
<path d="M508.934 370.444L508.924 370.592C508.926 370.542 508.932 370.495 508.934 370.445L508.934 370.444Z" fill="#02C39B"/>
<path d="M509.049 368.861L509.049 368.861C509.054 368.813 509.055 368.762 509.06 368.714L509.049 368.861Z" fill="#02C39B"/>
<path d="M524.929 377.519L509.049 368.861C508.998 369.379 508.96 369.906 508.934 370.444L525.048 378.938C525.013 378.46 524.973 377.987 524.929 377.519Z" fill="#02C39B"/>
<path d="M525.166 386.039L509.536 377.654C509.918 379.209 510.404 380.738 510.992 382.228L511.012 382.068L524.611 391.35C524.903 389.592 525.088 387.819 525.166 386.039Z" fill="#02C39B"/>
<path d="M519.901 355.357L519.974 355.291C517.52 354.857 515.295 355.706 513.493 357.53L522.508 363.941C521.206 358.83 519.92 355.406 519.901 355.357Z" fill="#02C39B"/>
<path d="M522.604 364.322L513.382 357.764L513.402 357.622C511.915 359.263 510.813 361.211 510.176 363.326L524.098 371.341C523.658 368.806 523.132 366.429 522.604 364.322Z" fill="#02C39B"/>
<path d="M525.179 385.727C525.26 383.57 525.224 381.41 525.07 379.256L508.917 370.742C508.883 371.61 508.883 372.502 508.917 373.417C508.976 374.726 509.155 376.026 509.453 377.303L525.172 385.735L525.179 385.727Z" fill="#02C39B"/>
<path d="M33.9448 402.617H562V410.113C562 413.265 560.738 416.289 558.491 418.518C556.244 420.747 553.196 422 550.018 422H45.9263C42.7486 422 39.7011 420.747 37.4541 418.518C35.2072 416.289 33.9448 413.265 33.9448 410.113V402.617Z" fill="#2F2E41"/>
<path d="M562 396.525H33.9448V407.047H562V396.525Z" fill="#3F3D56"/>
<path d="M443.184 36.5369L449.248 40.3525L445.566 33.7103C446.609 32.8847 447.9 32.4278 449.234 32.4117C449.266 32.4117 449.299 32.412 449.331 32.4125C449.753 32.4192 450.174 32.3883 450.59 32.3202L452.645 33.6132L451.764 32.0239C453.22 31.5201 454.478 30.5726 455.359 29.3167L459.038 31.6311L456.714 27.4391C458.865 24.8771 461.765 23.3062 464.956 23.3062C468.781 23.3062 472.189 25.5633 474.389 29.0801C475.039 30.1323 475.958 30.9951 477.053 31.5809C478.148 32.1667 479.38 32.4546 480.624 32.4154C480.692 32.4129 480.76 32.4117 480.829 32.4117C485.052 32.4117 488.476 37.1622 488.476 43.0222C488.476 48.8823 485.052 53.6328 480.829 53.6328C479.901 53.6294 478.987 53.4023 478.166 52.9712C476.728 52.2781 475.156 51.903 473.558 51.872C471.96 51.841 470.374 52.1548 468.911 52.7917C467.674 53.3431 466.334 53.6297 464.978 53.6328C463.623 53.6359 462.281 53.3555 461.042 52.8098C459.59 52.185 458.019 51.8774 456.436 51.9078C454.854 51.9381 453.296 52.3058 451.869 52.9857C451.055 53.4076 450.152 53.6295 449.234 53.6328C445.011 53.6328 441.587 48.8823 441.587 43.0222C441.563 40.7618 442.112 38.5315 443.184 36.5369Z" fill="#F2F2F2"/>
<path d="M134.635 67.6993L138.493 70.1265L136.151 65.9013C136.814 65.3761 137.635 65.0854 138.484 65.0752C138.505 65.0752 138.525 65.0754 138.546 65.0757C138.814 65.08 139.082 65.0604 139.346 65.017L140.654 65.8396L140.093 64.8286C141.02 64.5081 141.82 63.9053 142.381 63.1064L144.721 64.5787L143.242 61.912C143.865 61.1154 144.658 60.4661 145.565 60.0114C146.472 59.5567 147.469 59.3079 148.485 59.283C150.918 59.283 153.086 60.7188 154.485 62.9559C154.899 63.6252 155.484 64.1741 156.181 64.5467C156.877 64.9194 157.661 65.1025 158.452 65.0776C158.495 65.076 158.539 65.0752 158.583 65.0752C161.269 65.0752 163.447 68.0971 163.447 71.8248C163.447 75.5525 161.269 78.5744 158.583 78.5744C157.992 78.5722 157.41 78.4278 156.888 78.1536C155.974 77.7126 154.974 77.4741 153.957 77.4543C152.941 77.4346 151.932 77.6342 151.001 78.0394C150.214 78.3901 149.362 78.5724 148.499 78.5744C147.637 78.5764 146.784 78.398 145.996 78.0509C145.072 77.6535 144.072 77.4578 143.066 77.4771C142.059 77.4964 141.068 77.7303 140.16 78.1628C139.643 78.4312 139.068 78.5723 138.484 78.5744C135.798 78.5744 133.62 75.5525 133.62 71.8248C133.604 70.3869 133.953 68.9682 134.635 67.6993Z" fill="#F2F2F2"/>
<path d="M30.8108 80.7108L34.6686 83.138L32.3263 78.9128C32.9897 78.3876 33.8106 78.0969 34.6592 78.0867C34.6799 78.0867 34.7006 78.0868 34.7213 78.0872C34.9893 78.0915 35.2573 78.0719 35.5218 78.0285L36.8291 78.851L36.2687 77.8401C37.195 77.5196 37.9955 76.9168 38.5559 76.1179L40.896 77.5902L39.4176 74.9235C40.0402 74.1269 40.8336 73.4776 41.7404 73.0229C42.6472 72.5682 43.6446 72.3193 44.6604 72.2944C47.0938 72.2944 49.2614 73.7303 50.6608 75.9674C51.0745 76.6367 51.6593 77.1856 52.3559 77.5582C53.0524 77.9308 53.836 78.114 54.627 78.0891C54.6705 78.0875 54.7141 78.0867 54.7579 78.0867C57.4442 78.0867 59.622 81.1086 59.622 84.8363C59.622 88.564 57.4442 91.5859 54.7579 91.5859C54.1671 91.5837 53.5857 91.4393 53.0636 91.1651C52.1491 90.7241 51.1491 90.4855 50.1325 90.4658C49.116 90.4461 48.1073 90.6457 47.1762 91.0509C46.3895 91.4016 45.5372 91.5839 44.6747 91.5859C43.8123 91.5879 42.9591 91.4095 42.1708 91.0624C41.247 90.6649 40.2477 90.4693 39.2409 90.4886C38.2341 90.5079 37.2433 90.7417 36.3356 91.1743C35.818 91.4426 35.2431 91.5838 34.6592 91.5859C31.9728 91.5859 29.7951 88.564 29.7951 84.8363C29.7794 83.3984 30.1287 81.9796 30.8108 80.7108Z" fill="#F2F2F2"/>
<path d="M170.094 330.547L169.42 331.215C169.42 331.215 169.645 338.569 169.869 340.129C170.094 341.688 170.993 344.362 170.319 346.368C169.645 348.373 169.42 349.933 169.645 350.156C169.869 350.379 169.42 351.27 169.42 351.27L171.217 350.156L174.137 343.471L172.789 336.34L170.094 330.547Z" fill="#02C39B"/>
<path opacity="0.1" d="M170.094 330.547L169.42 331.215C169.42 331.215 169.645 338.569 169.869 340.129C170.094 341.688 170.993 344.362 170.319 346.368C169.645 348.373 169.42 349.933 169.645 350.156C169.869 350.379 169.42 351.27 169.42 351.27L171.217 350.156L174.137 343.471L172.789 336.34L170.094 330.547Z" fill="black"/>
<path d="M181.998 399.848C181.998 399.848 181.998 397.397 181.549 396.951C181.1 396.506 180.426 394.946 179.527 394.946C178.629 394.946 175.485 395.837 175.485 396.06C175.51 396.756 175.356 397.446 175.035 398.066C174.586 398.734 172.116 401.408 174.586 401.854C175.408 401.988 176.248 401.958 177.057 401.767C177.867 401.576 178.63 401.226 179.303 400.74C179.527 400.517 180.426 400.294 180.65 400.517C180.875 400.74 181.998 399.848 181.998 399.848Z" fill="#02C39B"/>
<path d="M188.287 395.837L189.634 398.288C189.634 398.288 190.084 400.517 190.757 400.74H191.431C191.431 400.74 192.105 403.191 193.677 402.968C195.25 402.745 197.046 401.854 197.046 401.408C197.046 400.962 197.046 399.625 196.373 399.18C195.428 398.414 194.528 397.596 193.677 396.729L192.554 395.615L188.287 395.837Z" fill="#02C39B"/>
<path d="M171.05 314.211C170.617 314.43 170.244 314.749 169.962 315.14C169.68 315.532 169.496 315.985 169.427 316.462C169.302 318.053 170.887 319.552 170.377 321.065C170.088 321.924 169.186 322.481 168.927 323.35C168.79 324.042 168.892 324.761 169.218 325.389C169.572 326.25 170.004 327.078 170.508 327.862C171.454 329.337 172.687 330.736 172.94 332.467C173.01 332.77 173.007 333.084 172.93 333.386C172.854 333.687 172.707 333.966 172.501 334.2C172.957 333.857 173.479 333.611 174.034 333.477C176.329 332.715 178.462 331.537 180.323 330.001C180.999 329.53 181.508 328.859 181.777 328.083C182.12 326.714 181.073 325.345 181.173 323.937C181.237 323.037 181.761 322.242 182.057 321.389C182.315 320.54 182.397 319.648 182.299 318.766C182.2 317.885 181.923 317.032 181.484 316.26C181.121 315.512 180.608 314.846 179.977 314.301C179.346 313.756 178.609 313.345 177.813 313.091C176.588 312.808 175.309 312.845 174.103 313.198C173.048 313.415 172.023 313.755 171.05 314.211Z" fill="#2F2E41"/>
<path d="M172.314 326.568C172.809 325.656 173.541 324.893 174.435 324.358C175.328 323.823 176.35 323.536 177.394 323.527C180.987 323.527 180.313 323.304 180.313 323.304L179.19 327.761L176.944 329.99L172.314 326.568Z" fill="#02C39B"/>
<path d="M173.238 321.856C173.238 321.856 175.26 325.199 173.912 326.536C172.565 327.873 173.238 329.21 173.463 329.432C173.688 329.655 179.977 330.101 179.977 330.101L180.201 326.981L180.875 324.307C180.875 324.307 177.281 323.639 177.731 322.079C178.18 320.519 173.238 321.856 173.238 321.856Z" fill="#FBBEBE"/>
<path opacity="0.1" d="M173.238 321.856C173.238 321.856 175.26 325.199 173.912 326.536C172.565 327.873 173.238 329.21 173.463 329.432C173.688 329.655 179.977 330.101 179.977 330.101L180.201 326.981L180.875 324.307C180.875 324.307 177.281 323.639 177.731 322.079C178.18 320.519 173.238 321.856 173.238 321.856Z" fill="black"/>
<path d="M188.961 353.499C188.72 354.264 188.42 355.009 188.062 355.727C187.838 355.95 187.164 354.167 187.164 354.167L187.838 352.607L188.961 353.499Z" fill="#FBBEBE"/>
<path d="M186.378 343.36L187.276 348.485H173.8L174.474 343.36H186.378Z" fill="#FBBEBE"/>
<path d="M175.709 323.639C178.066 323.639 179.977 321.743 179.977 319.405C179.977 317.067 178.066 315.171 175.709 315.171C173.352 315.171 171.442 317.067 171.442 319.405C171.442 321.743 173.352 323.639 175.709 323.639Z" fill="#FBBEBE"/>
<path d="M176.607 328.096C176.607 328.096 174.137 328.318 174.137 327.873C174.137 327.427 173.912 326.09 173.463 326.313C173.014 326.536 170.094 326.759 170.319 327.427C170.543 328.096 170.992 329.433 170.543 329.433C170.349 329.472 170.165 329.55 170.002 329.662C169.839 329.774 169.701 329.918 169.596 330.085C169.491 330.252 169.421 330.438 169.391 330.632C169.361 330.826 169.371 331.025 169.42 331.215C169.645 332.329 172.115 339.015 172.115 339.015C172.115 339.015 172.34 341.243 173.014 341.911C173.288 342.262 173.437 342.693 173.437 343.137C173.437 343.581 173.288 344.012 173.014 344.363C172.565 344.808 174.137 345.254 174.811 346.145C175.485 347.037 180.65 346.368 180.875 346.145C181.1 345.922 186.49 345.922 186.939 345.477C187.388 345.031 186.715 343.694 186.715 343.694C186.715 343.694 186.49 341.689 186.715 341.02C186.939 340.352 185.816 329.433 185.142 328.764C184.469 328.096 187.164 326.09 187.164 326.09C187.164 326.09 186.715 324.307 183.795 324.085C183.795 324.085 182.896 322.748 181.998 322.748C181.1 322.748 179.149 323.784 179.149 323.784C179.149 323.784 178.629 326.759 177.955 326.981C177.422 327.24 176.96 327.622 176.607 328.096Z" fill="#02C39B"/>
<path d="M185.592 325.421L187.164 326.09C187.164 326.09 191.656 339.906 191.207 342.58C190.757 345.254 189.634 354.39 188.961 354.39C188.287 354.39 186.939 353.053 186.939 353.053V350.825C186.939 350.379 186.265 349.042 186.715 349.042C187.164 349.042 187.838 348.596 187.388 348.151C186.939 347.705 186.49 347.036 186.939 346.368C187.388 345.699 187.613 345.477 187.388 344.808C187.164 344.139 186.715 343.471 187.164 343.025C187.613 342.58 186.041 340.351 186.041 340.351L183.57 330.547L184.019 326.536L185.592 325.421Z" fill="#02C39B"/>
<path d="M186.49 346.591C186.49 346.591 177.955 345.922 176.832 345.922C175.709 345.922 173.19 344.873 173.19 344.873C173.19 344.873 166.725 351.27 168.971 361.744C171.217 372.217 171.666 385.141 173.014 388.93C173.93 391.63 174.68 394.384 175.26 397.174C175.26 397.174 177.506 393.163 181.773 397.62C181.773 397.62 182.223 394.278 181.549 392.941C180.875 391.604 179.977 384.473 179.977 384.473C179.977 384.473 178.404 373.108 178.404 371.771C178.404 370.434 177.506 359.07 177.731 358.847C177.955 358.624 179.078 367.537 179.303 369.097C179.527 370.657 180.201 382.69 180.875 384.027C181.549 385.364 184.693 396.06 186.49 396.729C188.287 397.397 194.351 396.506 194.127 396.06C193.902 395.615 192.33 393.163 191.881 392.495L190.084 389.821L185.816 375.337L187.838 357.733C187.838 357.733 188.961 346.368 186.49 346.591Z" fill="#2F2E41"/>
<path d="M178.309 318.848H172.836C172.604 318.848 172.379 318.766 172.203 318.616C172.026 318.466 171.909 318.259 171.873 318.032L171.329 314.614H179.864L179.101 318.21C179.063 318.39 178.963 318.552 178.819 318.668C178.675 318.785 178.494 318.848 178.309 318.848Z" fill="#2F2E41"/>
<path d="M460.354 317.793H468.989V330.031C467.855 330.031 466.732 329.809 465.684 329.379C464.637 328.948 463.685 328.317 462.883 327.522C462.081 326.726 461.445 325.782 461.011 324.742C460.577 323.703 460.354 322.589 460.354 321.464V317.793Z" fill="#2F2E41"/>
<path d="M455.318 389.487L454.701 392.547H459.018L459.223 389.487H455.318Z" fill="#A0616A"/>
<path d="M455.317 391.935C455.317 391.935 454.495 391.323 454.084 391.731C453.673 392.139 452.234 400.094 452.028 400.298C451.822 400.502 445.655 403.561 447.094 403.765C448.533 403.969 454.084 404.173 454.906 403.765C455.728 403.357 457.99 399.482 457.99 399.482V402.949H458.401C458.401 402.949 458.812 399.278 459.84 398.258C460.868 397.238 459.018 393.771 459.018 393.771C459.018 393.771 459.429 391.527 459.223 391.527C459.018 391.527 455.317 391.935 455.317 391.935Z" fill="#02C39B"/>
<path d="M468.063 387.346L467.447 390.405H471.764L471.97 387.346H468.063Z" fill="#A0616A"/>
<path d="M463.13 367.459C463.13 367.459 465.185 373.578 465.597 374.19C466.008 374.802 467.447 386.224 467.447 386.224C467.447 386.224 466.008 388.468 467.858 388.672C469.708 388.876 468.886 388.264 470.119 388.672C470.455 388.797 470.815 388.844 471.171 388.809C471.528 388.774 471.872 388.657 472.175 388.468C472.175 388.468 472.792 387.244 472.381 386.836C471.97 386.428 472.792 375.822 472.792 375.822L471.559 372.15L470.531 360.524C470.531 360.524 471.764 357.465 471.147 356.649C470.531 355.833 468.475 357.261 468.475 357.261L463.13 367.459Z" fill="#2F2E41"/>
<path d="M460.457 351.549C460.457 351.549 459.84 358.076 459.429 358.484C459.018 358.892 454.495 370.314 454.495 370.314C454.495 370.314 453.261 371.742 453.673 377.045C454.084 382.348 455.112 387.652 455.112 387.652C455.112 387.652 454.289 390.711 455.728 390.711C457.168 390.711 457.784 389.895 458.401 390.507C459.018 391.119 459.429 390.507 459.635 390.099C459.84 389.691 460.662 388.264 460.662 387.856C460.662 387.448 461.485 377.045 461.485 377.045C461.485 377.045 468.269 362.156 468.886 361.34C469.503 360.524 472.998 356.037 472.792 352.977L460.457 351.549Z" fill="#2F2E41"/>
<path d="M465.597 324.014C467.981 324.014 469.914 322.096 469.914 319.73C469.914 317.365 467.981 315.447 465.597 315.447C463.212 315.447 461.279 317.365 461.279 319.73C461.279 322.096 463.212 324.014 465.597 324.014Z" fill="#A0616A"/>
<path d="M464.774 323.402C464.774 323.402 466.419 327.073 466.624 328.093C466.83 329.113 470.736 326.054 470.736 326.054C470.736 326.054 468.68 322.586 469.297 320.954L464.774 323.402Z" fill="#A0616A"/>
<path d="M471.353 325.442C471.353 325.442 468.269 323.198 466.008 327.889C463.746 332.58 463.13 332.376 463.13 332.376C463.13 332.376 460.457 333.192 461.279 338.903C462.102 344.615 458.607 352.161 460.046 352.569C461.485 352.977 474.848 355.221 474.848 353.589C474.848 351.957 473.614 345.634 474.642 341.759C475.67 337.884 473.203 324.422 471.353 325.442Z" fill="#3F3D56"/>
<path d="M468.269 326.461C468.269 326.461 465.802 330.133 466.008 332.988C466.213 335.844 466.213 337.68 466.213 337.68C466.213 337.68 462.102 357.261 462.924 357.261C463.746 357.261 466.213 358.28 466.419 357.669C466.624 357.057 471.764 344.615 471.764 344.615C471.764 344.615 472.998 332.173 471.559 329.317C470.119 326.461 468.269 326.461 468.269 326.461Z" fill="#3F3D56"/>
<path d="M463.335 356.648C463.335 356.648 461.279 363.583 464.157 363.787C467.036 363.991 465.391 357.056 465.391 357.056L463.335 356.648Z" fill="#A0616A"/>
<path d="M468.807 388.816C468.807 388.816 468.087 388.281 467.727 388.638C467.367 388.995 466.106 395.961 465.926 396.14C465.746 396.318 460.345 398.998 461.605 399.176C462.866 399.355 467.727 399.534 468.447 399.176C469.167 398.819 471.147 395.425 471.147 395.425V398.462H471.507C471.507 398.462 471.867 395.247 472.768 394.354C473.668 393.461 472.048 390.424 472.048 390.424C472.048 390.424 472.408 388.459 472.228 388.459C472.048 388.459 468.807 388.816 468.807 388.816Z" fill="#02C39B"/>
<path d="M463.462 316.924C463.599 316.758 463.779 316.631 463.983 316.558C464.173 316.524 464.368 316.541 464.55 316.607C465.839 316.98 466.957 317.786 467.712 318.888C467.859 319.169 468.079 319.405 468.349 319.572C468.526 319.625 468.698 319.69 468.864 319.767C469.345 320.082 469.059 320.813 468.782 321.314C468.075 322.604 467.748 324.066 467.84 325.532C467.834 325.787 467.909 326.037 468.056 326.246C468.289 326.46 468.593 326.581 468.91 326.585C469.908 326.709 470.913 326.762 471.919 326.744C472.903 326.727 473.994 326.588 474.632 325.845C475.317 325.045 475.21 323.82 474.764 322.868C474.318 321.916 473.593 321.121 473.078 320.204C472.59 319.235 472.204 318.218 471.928 317.17C471.572 315.833 470.998 314.562 470.228 313.408C469.84 312.833 469.337 312.344 468.749 311.971C468.162 311.597 467.504 311.348 466.815 311.237C464.947 311.031 463.225 312.172 461.724 313.293C460.038 314.553 458.245 316.11 458.109 318.2C458 319.892 459.024 321.424 459.559 323.034C460.385 325.521 460.039 328.222 459.684 330.817C461.207 329.912 462.929 328.656 462.829 326.898C462.762 325.712 461.86 324.766 461.299 323.717C459.755 320.832 461.515 318.898 463.462 316.924Z" fill="#2F2E41"/>
<path d="M524.175 337.771C525.481 335.508 526.156 332.941 526.13 330.334C526.13 323.613 521.935 318.164 516.76 318.164C511.585 318.164 507.39 323.613 507.39 330.334C507.365 332.941 508.04 335.508 509.346 337.771C508.064 340.043 507.39 342.604 507.39 345.208C507.39 347.812 508.064 350.373 509.346 352.645C508.064 354.917 507.39 357.478 507.39 360.082C507.39 362.686 508.064 365.246 509.346 367.519C508.064 369.791 507.39 372.352 507.39 374.956C507.39 377.56 508.064 380.12 509.346 382.393C508.04 384.655 507.365 387.222 507.39 389.83C507.39 396.551 511.585 401.999 516.76 401.999C521.935 401.999 526.13 396.551 526.13 389.83C526.156 387.222 525.481 384.655 524.175 382.393C525.457 380.12 526.13 377.56 526.13 374.956C526.13 372.352 525.457 369.791 524.175 367.519C525.457 365.246 526.13 362.686 526.13 360.082C526.13 357.478 525.457 354.917 524.175 352.645C525.457 350.373 526.13 347.812 526.13 345.208C526.13 342.604 525.457 340.043 524.175 337.771Z" fill="#3F3D56"/>
<path d="M516.76 327.63C521.935 327.63 526.13 322.181 526.13 315.46C526.13 308.739 521.935 303.29 516.76 303.29C511.585 303.29 507.39 308.739 507.39 315.46C507.39 322.181 511.585 327.63 516.76 327.63Z" fill="#3F3D56"/>
<path d="M516.76 312.755C521.935 312.755 526.13 307.307 526.13 300.586C526.13 293.865 521.935 288.416 516.76 288.416C511.585 288.416 507.39 293.865 507.39 300.586C507.39 307.307 511.585 312.755 516.76 312.755Z" fill="#3F3D56"/>
<path d="M551.837 198.798C553.117 197.181 554.283 195.478 555.326 193.702L530.706 189.69L557.333 189.887C559.888 184.373 561.281 178.4 561.429 172.333C561.576 166.266 560.474 160.233 558.191 154.604L522.466 172.99L555.412 148.963C552.326 143.671 548.174 139.066 543.215 135.436C538.257 131.805 532.598 129.227 526.592 127.861C520.585 126.495 514.359 126.371 508.302 127.496C502.245 128.621 496.486 130.972 491.384 134.401C486.283 137.831 481.947 142.266 478.649 147.431C475.35 152.595 473.159 158.378 472.211 164.419C471.263 170.46 471.58 176.631 473.14 182.545C474.701 188.46 477.472 193.993 481.282 198.798C479.287 201.315 477.571 204.037 476.164 206.919L508.123 223.392L474.045 212.045C471.653 219.062 471.061 226.561 472.325 233.862C473.588 241.164 476.667 248.037 481.282 253.861C476.075 260.429 472.836 268.319 471.935 276.627C471.034 284.936 472.507 293.329 476.187 300.845C479.867 308.362 485.605 314.7 492.744 319.134C499.884 323.568 508.137 325.92 516.559 325.92C524.982 325.92 533.235 323.568 540.374 319.134C547.514 314.7 553.252 308.362 556.931 300.845C560.611 293.329 562.085 284.936 561.184 276.627C560.283 268.319 557.044 260.429 551.837 253.861C558.059 246.012 561.442 236.316 561.442 226.33C561.442 216.344 558.059 206.647 551.837 198.798V198.798Z" fill="#F2F2F2"/>
<path d="M471.677 226.33C471.662 236.318 475.046 246.019 481.282 253.861C476.075 260.429 472.836 268.319 471.935 276.627C471.034 284.936 472.507 293.329 476.187 300.845C479.867 308.362 485.605 314.7 492.744 319.134C499.884 323.568 508.136 325.92 516.559 325.92C524.982 325.92 533.235 323.568 540.374 319.134C547.514 314.7 553.251 308.362 556.931 300.845C560.611 293.329 562.085 284.936 561.184 276.627C560.283 268.319 557.044 260.429 551.837 253.861C557.852 246.284 471.677 221.332 471.677 226.33Z" fill="#F2F2F2"/>
<path d="M551.837 198.798C553.117 197.181 554.283 195.478 555.326 193.702L530.706 189.69L557.333 189.887C559.888 184.373 561.281 178.4 561.429 172.333C561.576 166.266 560.474 160.233 558.191 154.604L522.466 172.99L555.412 148.963C552.326 143.671 548.174 139.066 543.215 135.436C538.257 131.805 532.598 129.227 526.592 127.861C520.585 126.495 514.359 126.371 508.302 127.496C502.245 128.621 496.486 130.972 491.384 134.401C486.283 137.831 481.947 142.266 478.649 147.431C475.35 152.595 473.159 158.378 472.211 164.419C471.263 170.46 471.58 176.631 473.14 182.545C474.701 188.46 477.472 193.993 481.282 198.798C479.287 201.315 477.571 204.037 476.164 206.919L508.123 223.392L474.045 212.045C471.653 219.062 471.061 226.561 472.325 233.862C473.588 241.164 476.667 248.037 481.282 253.861C476.075 260.429 472.836 268.319 471.935 276.627C471.034 284.936 472.507 293.329 476.187 300.845C479.867 308.362 485.605 314.7 492.744 319.134C499.884 323.568 508.137 325.92 516.559 325.92C524.982 325.92 533.235 323.568 540.374 319.134C547.514 314.7 553.252 308.362 556.931 300.845C560.611 293.329 562.085 284.936 561.184 276.627C560.283 268.319 557.044 260.429 551.837 253.861C558.059 246.012 561.442 236.316 561.442 226.33C561.442 216.344 558.059 206.647 551.837 198.798V198.798Z" fill="#57B894"/>
<path opacity="0.1" d="M471.677 226.33C471.662 236.318 475.046 246.019 481.282 253.861C476.075 260.429 472.836 268.319 471.935 276.627C471.034 284.936 472.507 293.329 476.187 300.845C479.867 308.362 485.605 314.7 492.744 319.134C499.884 323.568 508.136 325.92 516.559 325.92C524.982 325.92 533.235 323.568 540.374 319.134C547.514 314.7 553.251 308.362 556.931 300.845C560.611 293.329 562.085 284.936 561.184 276.627C560.283 268.319 557.044 260.429 551.837 253.861C557.852 246.284 471.677 221.332 471.677 226.33Z" fill="black"/>
<path d="M52.4974 337.771C53.8039 335.508 54.4789 332.941 54.4531 330.334C54.4531 323.613 50.258 318.164 45.0831 318.164C39.9082 318.164 35.7131 323.613 35.7131 330.334C35.6873 332.941 36.3623 335.508 37.6688 337.771C36.3865 340.043 35.7131 342.604 35.7131 345.208C35.7131 347.812 36.3865 350.373 37.6688 352.645C36.3865 354.917 35.7131 357.478 35.7131 360.082C35.7131 362.686 36.3865 365.246 37.6688 367.519C36.3865 369.791 35.7131 372.352 35.7131 374.956C35.7131 377.56 36.3865 380.12 37.6688 382.393C36.3623 384.655 35.6873 387.222 35.7131 389.83C35.7131 396.551 39.9082 401.999 45.0831 401.999C50.258 401.999 54.4531 396.551 54.4531 389.83C54.4789 387.222 53.8039 384.655 52.4974 382.393C53.7797 380.12 54.4531 377.56 54.4531 374.956C54.4531 372.352 53.7797 369.791 52.4974 367.519C53.7797 365.246 54.4531 362.686 54.4531 360.082C54.4531 357.478 53.7797 354.917 52.4974 352.645C53.7797 350.373 54.4531 347.812 54.4531 345.208C54.4531 342.604 53.7797 340.043 52.4974 337.771Z" fill="#3F3D56"/>
<path d="M45.0831 327.63C50.258 327.63 54.4531 322.181 54.4531 315.46C54.4531 308.739 50.258 303.29 45.0831 303.29C39.9082 303.29 35.7131 308.739 35.7131 315.46C35.7131 322.181 39.9082 327.63 45.0831 327.63Z" fill="#3F3D56"/>
<path d="M45.0831 312.755C50.258 312.755 54.4531 307.307 54.4531 300.586C54.4531 293.865 50.258 288.416 45.0831 288.416C39.9082 288.416 35.7131 293.865 35.7131 300.586C35.7131 307.307 39.9082 312.755 45.0831 312.755Z" fill="#3F3D56"/>
<path d="M80.1596 198.798C81.4397 197.181 82.6057 195.478 83.6491 193.702L59.0287 189.69L85.6563 189.887C88.2107 184.373 89.6042 178.4 89.7516 172.333C89.899 166.266 88.7971 160.233 86.5134 154.604L50.7893 172.99L83.7353 148.963C80.6487 143.671 76.4969 139.066 71.5384 135.436C66.58 131.805 60.9211 129.227 54.9144 127.861C48.9077 126.495 42.6818 126.371 36.6246 127.496C30.5674 128.621 24.8086 130.972 19.707 134.401C14.6054 137.831 10.2703 142.266 6.97167 147.431C3.67307 152.595 1.48166 158.378 0.533968 164.419C-0.413728 170.46 -0.0974108 176.631 1.46322 182.545C3.02385 188.46 5.79535 193.993 9.60508 198.798C7.60971 201.315 5.89357 204.037 4.48641 206.919L36.4454 223.392L2.3682 212.045C-0.0245344 219.062 -0.615855 226.561 0.647744 233.862C1.91134 241.164 4.98998 248.037 9.60507 253.861C4.39778 260.429 1.15848 268.319 0.257526 276.627C-0.643429 284.936 0.830323 293.329 4.51029 300.845C8.19025 308.362 13.9279 314.7 21.0673 319.134C28.2066 323.568 36.4595 325.92 44.8823 325.92C53.3052 325.92 61.5581 323.568 68.6974 319.134C75.8368 314.7 81.5744 308.362 85.2544 300.845C88.9344 293.329 90.4081 284.936 89.5072 276.627C88.6062 268.319 85.3669 260.429 80.1596 253.861C86.3819 246.012 89.7646 236.316 89.7646 226.33C89.7646 216.344 86.3819 206.647 80.1596 198.798L80.1596 198.798Z" fill="#F2F2F2"/>
<path d="M5.29803e-05 226.33C-0.0154437 236.318 3.36904 246.019 9.60509 253.861C4.3978 260.429 1.1585 268.319 0.257543 276.627C-0.643412 284.936 0.83034 293.329 4.51031 300.845C8.19027 308.362 13.9279 314.7 21.0673 319.134C28.2066 323.568 36.4595 325.92 44.8824 325.92C53.3052 325.92 61.5581 323.568 68.6974 319.134C75.8368 314.7 81.5744 308.362 85.2544 300.845C88.9344 293.329 90.4081 284.936 89.5072 276.627C88.6062 268.319 85.3669 260.429 80.1596 253.861C86.1752 246.284 5.29803e-05 221.332 5.29803e-05 226.33Z" fill="#F2F2F2"/>
<path d="M80.1596 198.798C81.4397 197.181 82.6057 195.478 83.6491 193.702L59.0287 189.69L85.6563 189.887C88.2107 184.373 89.6042 178.4 89.7516 172.333C89.899 166.266 88.7971 160.233 86.5134 154.604L50.7893 172.99L83.7353 148.963C80.6487 143.671 76.4969 139.066 71.5384 135.436C66.58 131.805 60.9211 129.227 54.9144 127.861C48.9077 126.495 42.6818 126.371 36.6246 127.496C30.5674 128.621 24.8086 130.972 19.707 134.401C14.6054 137.831 10.2703 142.266 6.97167 147.431C3.67307 152.595 1.48166 158.378 0.533968 164.419C-0.413728 170.46 -0.0974108 176.631 1.46322 182.545C3.02385 188.46 5.79535 193.993 9.60508 198.798C7.60971 201.315 5.89357 204.037 4.48641 206.919L36.4454 223.392L2.3682 212.045C-0.0245344 219.062 -0.615855 226.561 0.647744 233.862C1.91134 241.164 4.98998 248.037 9.60507 253.861C4.39778 260.429 1.15848 268.319 0.257526 276.627C-0.643429 284.936 0.830323 293.329 4.51029 300.845C8.19025 308.362 13.9279 314.7 21.0673 319.134C28.2066 323.568 36.4595 325.92 44.8823 325.92C53.3052 325.92 61.5581 323.568 68.6974 319.134C75.8368 314.7 81.5744 308.362 85.2544 300.845C88.9344 293.329 90.4081 284.936 89.5072 276.627C88.6062 268.319 85.3669 260.429 80.1596 253.861C86.3819 246.012 89.7646 236.316 89.7646 226.33C89.7646 216.344 86.3819 206.647 80.1596 198.798L80.1596 198.798Z" fill="#57B894"/>
<path opacity="0.1" d="M5.29803e-05 226.33C-0.0154437 236.318 3.36904 246.019 9.60509 253.861C4.3978 260.429 1.1585 268.319 0.257543 276.627C-0.643412 284.936 0.83034 293.329 4.51031 300.845C8.19027 308.362 13.9279 314.7 21.0673 319.134C28.2066 323.568 36.4595 325.92 44.8824 325.92C53.3052 325.92 61.5581 323.568 68.6974 319.134C75.8368 314.7 81.5744 308.362 85.2544 300.845C88.9344 293.329 90.4081 284.936 89.5072 276.627C88.6062 268.319 85.3669 260.429 80.1596 253.861C86.1752 246.284 5.29803e-05 221.332 5.29803e-05 226.33Z" fill="black"/>
<path d="M323.449 196.355L301.179 218.45L290.627 207.982L286.52 212.057L301.165 226.587L327.557 200.431L323.449 196.355Z" fill="#57B894"/>
<path d="M394.34 145.959L372.07 168.054L361.519 157.586L357.411 161.661L372.056 176.191L398.448 150.034L394.34 145.959Z" fill="#57B894"/>
</g>
<defs>
<clipPath id="clip0">
<rect width="562" height="422" fill="white"/>
</clipPath>
</defs>
</svg>
