<svg width="24" height="24" viewBox="0 0 24 24" fill="none" xmlns="http://www.w3.org/2000/svg">
<g filter="url(#filter0_i)">
<rect width="24" height="24" rx="7" fill="#0096F4" fill-opacity="0.2"/>
</g>
<g clip-path="url(#clip0)">
<path d="M16.7671 11.5843C16.6671 11.7878 16.5603 11.9883 16.4483 12.1848C16.403 12.2643 16.4362 12.3653 16.5194 12.4035C18.0641 13.1125 19.001 14.1548 19.001 15.25C19.001 15.6937 18.8496 16.0877 18.6364 16.4228C18.5924 16.4918 18.6099 16.5834 18.6762 16.6315C18.8534 16.7603 19.0085 16.9175 19.1349 17.0964C19.1973 17.1846 19.3287 17.1844 19.3903 17.0957C20.6575 15.274 19.9925 12.918 16.9731 11.5124C16.8964 11.4767 16.8044 11.5083 16.7671 11.5843Z" fill="#0096F4"/>
<path d="M17.501 17.25C16.9915 17.25 16.5712 17.6312 16.5092 18.124C16.4629 18.1298 16.4166 18.1419 16.3717 18.1615C13.5748 19.3816 9.51181 19.2747 6.94416 17.8203C4.03419 16.1708 4.54034 13.7527 7.48241 12.4036C7.56569 12.3654 7.59903 12.2643 7.55369 12.1847C7.44178 11.9883 7.33494 11.7879 7.235 11.5844C7.19762 11.5083 7.10559 11.4767 7.02875 11.5125C3.28387 13.2588 2.92106 16.6902 6.45134 18.6903C9.32634 20.3192 13.7303 20.4055 16.7717 19.0784C16.8062 19.0634 16.8378 19.0446 16.867 19.0232C17.5108 19.5517 18.501 19.1001 18.501 18.2499C18.501 17.6977 18.0533 17.25 17.501 17.25Z" fill="#0096F4"/>
<path d="M8.7642 14.5003C8.80391 14.485 8.84495 14.4698 8.88726 14.4549C8.9887 14.4189 9.02345 14.2932 8.95563 14.2096C8.81001 14.0302 8.66332 13.8425 8.51782 13.6472C8.47544 13.5904 8.40016 13.5687 8.33429 13.5949C6.34347 14.3862 6.39588 15.7303 7.5595 16.5084C7.62044 16.549 7.687 16.5746 7.75482 16.5859C7.79897 17.1062 8.24223 17.5132 8.77704 17.4996C9.37692 17.4844 9.83001 16.9337 9.73907 16.3406C9.62698 15.6094 8.75329 15.2448 8.14888 15.7015C8.12201 15.6794 7.75107 15.4494 7.75107 15.2499C7.75107 15.0765 8.06232 14.7684 8.7642 14.5003Z" fill="#0096F4"/>
<path d="M17.2509 15.25C17.2509 14.4305 16.442 13.9028 15.6679 13.595C15.6018 13.5687 15.5266 13.5903 15.4842 13.6473C15.3388 13.8423 15.1921 14.0302 15.0463 14.2096C14.9779 14.2937 15.0142 14.4193 15.1164 14.4555C15.9039 14.7337 16.2509 15.0668 16.2509 15.25C16.2509 15.4312 15.9178 15.749 15.1869 16.0184C13.9454 16.4755 12.2632 16.5734 10.9179 16.4521C10.8295 16.4441 10.7528 16.5114 10.7484 16.6001C10.7376 16.8182 10.6923 17.0291 10.6143 17.2282C10.5766 17.3243 10.6419 17.4299 10.7447 17.4398C13.6528 17.7215 17.2509 16.9844 17.2509 15.25Z" fill="#0096F4"/>
<path d="M12.0011 10C12.8295 10 13.5011 9.32843 13.5011 8.5C13.5011 7.67157 12.8295 7 12.0011 7C11.1727 7 10.5011 7.67157 10.5011 8.5C10.5011 9.32843 11.1727 10 12.0011 10Z" fill="#0096F4"/>
<path d="M11.6701 15.625C11.858 15.7905 12.1416 15.7928 12.332 15.625C12.5045 15.4725 16.5623 11.8544 16.5623 8.56125C16.5623 6.04625 14.5161 4 12.0011 4C9.48607 4 7.43982 6.04625 7.43982 8.56125C7.43982 11.8544 11.4977 15.4725 11.6701 15.625ZM9.50107 8.5C9.50107 7.12156 10.6226 6 12.0011 6C13.3795 6 14.5011 7.12156 14.5011 8.5C14.5011 9.87844 13.3795 11 12.0011 11C10.6226 11 9.50107 9.87844 9.50107 8.5Z" fill="#0096F4"/>
</g>
<defs>
<filter id="filter0_i" x="0" y="0" width="24" height="25" filterUnits="userSpaceOnUse" color-interpolation-filters="sRGB">
<feFlood flood-opacity="0" result="BackgroundImageFix"/>
<feBlend mode="normal" in="SourceGraphic" in2="BackgroundImageFix" result="shape"/>
<feColorMatrix in="SourceAlpha" type="matrix" values="0 0 0 0 0 0 0 0 0 0 0 0 0 0 0 0 0 0 127 0" result="hardAlpha"/>
<feOffset dy="1"/>
<feGaussianBlur stdDeviation="0.5"/>
<feComposite in2="hardAlpha" operator="arithmetic" k2="-1" k3="1"/>
<feColorMatrix type="matrix" values="0 0 0 0 0 0 0 0 0 0 0 0 0 0 0 0 0 0 0.25 0"/>
<feBlend mode="normal" in2="shape" result="effect1_innerShadow"/>
</filter>
<clipPath id="clip0">
<rect width="16" height="16" fill="white" transform="translate(4 4)"/>
</clipPath>
</defs>
</svg>
