<svg height="466pt" viewBox="0 -10 466.0108 466" width="466pt" xmlns="http://www.w3.org/2000/svg" xmlns:xlink="http://www.w3.org/1999/xlink"><linearGradient id="a"><stop offset="0" stop-color="#00efd1"/><stop offset="1" stop-color="#00acea"/></linearGradient><linearGradient id="b" gradientUnits="userSpaceOnUse" x1="233.005399" x2="233.005399" xlink:href="#a" y1="9.007562" y2="433.309562"/><linearGradient id="c" gradientUnits="userSpaceOnUse" x1="158.505399" x2="158.505399" xlink:href="#a" y1="9.007562" y2="433.309562"/><linearGradient id="d" gradientUnits="userSpaceOnUse" x1="235.902399" x2="235.902399" xlink:href="#a" y1="9.007562" y2="433.309562"/><linearGradient id="e" gradientUnits="userSpaceOnUse" x1="174.005399" x2="174.005399" xlink:href="#a" y1="9.007562" y2="433.309562"/><linearGradient id="f" gradientUnits="userSpaceOnUse" x1="134.005399" x2="134.005399" xlink:href="#a" y1="9.007562" y2="433.309562"/><linearGradient id="g" gradientUnits="userSpaceOnUse" x1="324.005399" x2="324.005399" xlink:href="#a" y1="9.007562" y2="433.309562"/><linearGradient id="h" gradientUnits="userSpaceOnUse" x1="353.005399" x2="353.005399" xlink:href="#a" y1="9.007562" y2="433.309562"/><path d="m466.003906 6.75c.0625-1.796875-.617187-3.539062-1.882812-4.816406-1.265625-1.273438-3.003906-1.9726565-4.800782-1.9257815h-452.632812c-1.796875-.046875-3.53125.6523435-4.796875 1.9257815-1.265625 1.277344-1.9492188 3.019531-1.88671875 4.816406v361.1875c-.07031245 1.828125.59765575 3.613281 1.85546875 4.941406 1.257813 1.332032 3 2.097656 4.828125 2.128906h157.085938l-16.074219 57h-28.226563c-3.867187 0-7 3.132813-7 7 0 3.867188 3.132813 7 7 7h227.066406c3.867188 0 7-3.132812 7-7 0-3.867187-3.132812-7-7-7h-28.226562l-16.074219-57h157.082031c1.832032-.03125 3.574219-.796874 4.832032-2.128906 1.257812-1.328125 1.925781-3.113281 1.851562-4.941406zm-452 7.257812h438v272h-438zm289.769532 418h-141.535157l16.074219-57h109.386719zm148.230468-71h-438v-61h438zm0 0" fill="url(#b)"/><path d="m268.457031 92.007812h-56.453125v-47.300781c0-3.867187-3.40625-6.699219-7.273437-6.699219h-100.125c-1.785157-.054687-3.507813.640626-4.761719 1.910157-1.25 1.273437-1.917969 3.007812-1.839844 4.789062v75.300781h-28.589844c-3.863281 0-7.410156 2.898438-7.410156 6.761719v26.238281h-13.207031c-1.789063-.085937-3.535156.574219-4.824219 1.824219-1.285156 1.246094-1.996094 2.972657-1.96875 4.765625v97.710938c-.035156 1.804687.671875 3.542968 1.957032 4.808594 1.285156 1.269531 3.03125 1.953124 4.835937 1.890624h219.660156c1.777344.050782 3.496094-.644531 4.742188-1.917968 1.242187-1.269532 1.898437-3.003906 1.804687-4.78125v-157.96875c0-3.867188-2.679687-7.332032-6.546875-7.332032zm-70.453125-40v198h-86v-122.214843c0-.335938.085938-.675781.085938-1.023438 0-.347656-.085938-.6875-.085938-1.023437v-73.738282zm-142 115h13.410156c3.867188 0 6.589844-3.542968 6.589844-7.410156v-25.589844h22v116h-42zm205 83h-49v-144h49zm0 0" fill="url(#c)"/><g fill="url(#d)"><path d="m231.6875 185.007812h8.429688c3.867187 0 7-3.132812 7-7 0-3.867187-3.132813-7-7-7h-8.429688c-3.867188 0-7 3.132813-7 7 0 3.867188 3.132812 7 7 7zm0 0"/><path d="m231.6875 208.007812h8.429688c3.867187 0 7-3.132812 7-7 0-3.867187-3.132813-7-7-7h-8.429688c-3.867188 0-7 3.132813-7 7 0 3.867188 3.132812 7 7 7zm0 0"/><path d="m240.117188 218.007812h-8.429688c-3.867188 0-7 3.132813-7 7 0 3.867188 3.132812 7 7 7h8.429688c3.867187 0 7-3.132812 7-7 0-3.867187-3.132813-7-7-7zm0 0"/></g><path d="m174.003906 148.152344c3.867188 0 7-3.132813 7-7v-15.132813c0-3.867187-3.132812-7-7-7-3.863281 0-7 3.132813-7 7v15.132813c0 3.867187 3.136719 7 7 7zm0 0" fill="url(#e)"/><path d="m134.003906 148.152344c3.867188 0 7-3.132813 7-7v-15.132813c0-3.867187-3.132812-7-7-7-3.863281 0-7 3.132813-7 7v15.132813c0 3.867187 3.136719 7 7 7zm0 0" fill="url(#f)"/><path d="m231.6875 138.007812h8.429688c3.867187 0 7-3.132812 7-7 0-3.867187-3.132813-7-7-7h-8.429688c-3.867188 0-7 3.132813-7 7 0 3.867188 3.132812 7 7 7zm0 0" fill="url(#d)"/><path d="m231.6875 161.007812h8.429688c3.867187 0 7-3.132812 7-7 0-3.867187-3.132813-7-7-7h-8.429688c-3.867188 0-7 3.132813-7 7 0 3.867188 3.132812 7 7 7zm0 0" fill="url(#d)"/><path d="m174.003906 108.144531c3.867188 0 7-3.132812 7-7v-15.136719c0-3.867187-3.132812-7-7-7-3.863281 0-7 3.132813-7 7v15.132813c0 3.867187 3.132813 7.003906 7 7.003906zm0 0" fill="url(#e)"/><path d="m134.003906 108.144531c3.867188 0 7-3.132812 7-7v-15.136719c0-3.867187-3.132812-7-7-7-3.863281 0-7 3.132813-7 7v15.132813c0 3.867187 3.132813 7.003906 7 7.003906zm0 0" fill="url(#f)"/><path d="m174.003906 188.160156c3.867188 0 7-3.132812 7-7v-15.132812c0-3.867188-3.132812-7-7-7-3.863281 0-7 3.132812-7 7v15.132812c0 3.867188 3.136719 7 7 7zm0 0" fill="url(#e)"/><path d="m134.003906 188.160156c3.867188 0 7-3.132812 7-7v-15.132812c0-3.867188-3.132812-7-7-7-3.863281 0-7 3.132812-7 7v15.132812c0 3.867188 3.136719 7 7 7zm0 0" fill="url(#f)"/><path d="m174.003906 228.167969c3.867188 0 7-3.132813 7-7v-15.132813c0-3.867187-3.132812-7-7-7-3.863281 0-7 3.132813-7 7v15.132813c0 3.867187 3.136719 7 7 7zm0 0" fill="url(#e)"/><path d="m134.003906 228.167969c3.867188 0 7-3.132813 7-7v-15.132813c0-3.867187-3.132812-7-7-7-3.863281 0-7 3.132813-7 7v15.132813c0 3.867187 3.136719 7 7 7zm0 0" fill="url(#f)"/><path d="m298.003906 136.007812h52c3.867188 0 7-3.132812 7-7 0-3.867187-3.132812-7-7-7h-52c-3.863281 0-7 3.132813-7 7 0 3.867188 3.136719 7 7 7zm0 0" fill="url(#g)"/><path d="m293.003906 168.007812c0 3.867188 3.136719 7 7 7h106c3.867188 0 7-3.132812 7-7 0-3.867187-3.132812-7-7-7h-106c-3.863281 0-7 3.132813-7 7zm0 0" fill="url(#h)"/><path d="m406.003906 199.007812h-106c-3.863281 0-7 3.132813-7 7 0 3.867188 3.136719 7 7 7h106c3.867188 0 7-3.132812 7-7 0-3.867187-3.132812-7-7-7zm0 0" fill="url(#h)"/><path d="m406.003906 238.007812h-106c-3.863281 0-7 3.132813-7 7 0 3.867188 3.136719 7 7 7h106c3.867188 0 7-3.132812 7-7 0-3.867187-3.132812-7-7-7zm0 0" fill="url(#h)"/></svg>