<svg height="512" viewBox="0 0 512 512" width="512" xmlns="http://www.w3.org/2000/svg" xmlns:xlink="http://www.w3.org/1999/xlink"><linearGradient id="a" gradientUnits="userSpaceOnUse" x1="-79.132" x2="395.644" y1="401.873" y2="-72.903" data-name="New Gradient Swatch 1"><stop offset="0" stop-color="#003f8a"/><stop offset=".518" stop-color="#00d7df"/><stop offset="1" stop-color="#006df0"/></linearGradient><linearGradient id="b" x1="91.868" x2="566.644" xlink:href="#a" y1="572.873" y2="98.097"/><linearGradient id="c" x1="28.375" x2="503.151" xlink:href="#a" y1="509.381" y2="34.605"/><g><path d="m154.827 202.4-44.4-4.615-18.111-40.8a8 8 0 0 0 -14.624 0l-18.111 40.8-44.4 4.615a8 8 0 0 0 -4.519 13.908l33.211 29.834-9.341 43.658a8 8 0 0 0 11.831 8.6l38.637-22.367 38.637 22.367a8 8 0 0 0 11.831-8.6l-9.333-43.657 33.211-29.834a8 8 0 0 0 -4.519-13.908zm-42.827 34.939a8 8 0 0 0 -2.477 7.623l6.533 30.56-27.048-15.656a8 8 0 0 0 -8.016 0l-27.046 15.656 6.533-30.56a8 8 0 0 0 -2.479-7.623l-23.245-20.884 31.083-3.23a8 8 0 0 0 6.485-4.712l12.677-28.562 12.677 28.562a8 8 0 0 0 6.485 4.712l31.083 3.23z" fill="url(#a)"/><path d="m503.608 207.889a8 8 0 0 0 -6.781-5.485l-44.4-4.615-18.111-40.8a8 8 0 0 0 -14.624 0l-18.111 40.8-44.4 4.615a8 8 0 0 0 -4.519 13.908l33.211 29.834-9.341 43.654a8 8 0 0 0 11.831 8.6l38.637-22.367 38.637 22.367a8 8 0 0 0 11.831-8.6l-9.333-43.657 33.211-29.834a8 8 0 0 0 2.262-8.42zm-49.608 29.45a8 8 0 0 0 -2.477 7.623l6.533 30.56-27.046-15.656a8 8 0 0 0 -8.016 0l-27.046 15.656 6.533-30.56a8 8 0 0 0 -2.481-7.623l-23.247-20.884 31.083-3.23a8 8 0 0 0 6.485-4.712l12.679-28.562 12.677 28.562a8 8 0 0 0 6.485 4.712l31.083 3.23z" fill="url(#b)"/><path d="m394.55 123.98a8.016 8.016 0 0 0 -6.78-5.49l-88.41-9.18-36.05-81.24a8 8 0 0 0 -14.62 0l-36.05 81.24-88.41 9.18a8 8 0 0 0 -4.52 13.91l66.12 59.4-18.58 86.92a7.995 7.995 0 0 0 11.83 8.59l44.92-26v71.37c-.07-.13-.13-.26-.21-.38a24 24 0 0 0 -41.65 23.87l42.95 80.18a7.982 7.982 0 0 0 1.49 1.98l13.53 13.05-.11 28.59a7.989 7.989 0 0 0 8 8.03h96a8 8 0 0 0 8-8v-28.69l13.66-13.65a8.008 8.008 0 0 0 2.34-5.66v-104a24.007 24.007 0 0 0 -32.83-22.32 24.014 24.014 0 0 0 -34.93-14.6 24.727 24.727 0 0 0 -3.27-4.07 24.045 24.045 0 0 0 -24.97-5.64v-29.33l60.92 35.27a8 8 0 0 0 11.83-8.59l-18.58-86.92 66.12-59.4a7.991 7.991 0 0 0 2.26-8.42zm-114.55 172.02a7.989 7.989 0 0 1 8 8v40a8 8 0 0 0 16 0v-32a8 8 0 1 1 16 0v32a8 8 0 0 0 16 0v-16a8 8 0 1 1 16 0v100.69l-13.66 13.65a8.008 8.008 0 0 0 -2.34 5.66v24h-79.97l.09-23.97a8.006 8.006 0 0 0 -2.44-5.79l-15.08-14.55-42.41-79.18-.12-.21a8.033 8.033 0 0 1 2.94-10.95 7.868 7.868 0 0 1 3.98-1.07 8.031 8.031 0 0 1 6.84 3.84l15.02 29.97a8 8 0 0 0 15.15-3.58v-126.51a8 8 0 1 1 16 0v104a8 8 0 0 0 16 0v-40a8.011 8.011 0 0 1 8-8zm32.03-113.01a7.987 7.987 0 0 0 -2.47 7.62l15.78 73.83-54.39-31.49a24.005 24.005 0 0 0 -46.95 7.05v2.82l-37.34 21.62 15.78-73.83a7.987 7.987 0 0 0 -2.47-7.62l-56.15-50.44 75.08-7.8a8.01 8.01 0 0 0 6.48-4.71l30.62-69 30.62 69a8.01 8.01 0 0 0 6.48 4.71l75.08 7.8z" fill="url(#c)"/></g></svg>