<svg width="14" height="13" viewBox="0 0 14 13" fill="none" xmlns="http://www.w3.org/2000/svg">
<path d="M13.189 4.51719L9.22178 3.94063L7.44834 0.345315C7.39991 0.246878 7.32022 0.16719 7.22178 0.118753C6.97491 -0.00312227 6.67491 0.0984402 6.55147 0.345315L4.77803 3.94063L0.810845 4.51719C0.70147 4.53282 0.60147 4.58438 0.524907 4.6625C0.432347 4.75764 0.381343 4.88563 0.383101 5.01835C0.384859 5.15107 0.439235 5.27767 0.534282 5.37032L3.40459 8.16875L2.72647 12.1203C2.71057 12.2122 2.72074 12.3068 2.75583 12.3932C2.79093 12.4796 2.84953 12.5545 2.92501 12.6093C3.00049 12.6642 3.08982 12.6967 3.18288 12.7034C3.27593 12.71 3.36898 12.6904 3.45147 12.6469L6.99991 10.7813L10.5483 12.6469C10.6452 12.6984 10.7577 12.7156 10.8655 12.6969C11.1374 12.65 11.3202 12.3922 11.2733 12.1203L10.5952 8.16875L13.4655 5.37032C13.5437 5.29375 13.5952 5.19375 13.6108 5.08438C13.653 4.81094 13.4624 4.55782 13.189 4.51719Z" fill="#FBAC41"/>
</svg>
