<svg width="16" height="16" viewBox="0 0 16 16" fill="none" xmlns="http://www.w3.org/2000/svg">
<path d="M14.1891 5.51721L10.2219 4.94064L8.44847 1.34533C8.40003 1.24689 8.32034 1.16721 8.2219 1.11877C7.97503 0.996893 7.67503 1.09846 7.55159 1.34533L5.77815 4.94064L1.81097 5.51721C1.70159 5.53283 1.60159 5.58439 1.52503 5.66252C1.43247 5.75765 1.38146 5.88564 1.38322 6.01836C1.38498 6.15109 1.43936 6.27768 1.5344 6.37033L4.40472 9.16877L3.72659 13.1203C3.71069 13.2123 3.72086 13.3068 3.75595 13.3932C3.79105 13.4797 3.84966 13.5545 3.92514 13.6094C4.00062 13.6642 4.08995 13.6968 4.183 13.7034C4.27605 13.71 4.3691 13.6904 4.45159 13.6469L8.00003 11.7813L11.5485 13.6469C11.6453 13.6985 11.7578 13.7156 11.8657 13.6969C12.1375 13.65 12.3203 13.3922 12.2735 13.1203L11.5953 9.16877L14.4657 6.37033C14.5438 6.29377 14.5953 6.19377 14.611 6.08439C14.6532 5.81096 14.4625 5.55783 14.1891 5.51721Z" fill="#FBAC41"/>
</svg>
