<svg width="142" height="47" viewBox="0 0 142 47" fill="none" xmlns="http://www.w3.org/2000/svg">
<path d="M3.79688 25.7344C5.28125 27.2188 7.09375 27.9609 9.23438 27.9609C11.4688 27.9609 12.5859 27.3047 12.5859 25.9922C12.5859 25.3047 11.9688 24.7969 10.7344 24.4688C9.85938 24.2656 8.46875 23.9141 6.5625 23.4141C5.01562 23.0078 3.71094 22.2578 2.64844 21.1641C1.60156 20.0859 1.07812 18.4297 1.07812 16.1953C1.07812 14.4766 1.50781 13.0234 2.36719 11.8359C3.24219 10.6484 4.375 9.77344 5.76562 9.21094C7.1875 8.63281 8.74219 8.34375 10.4297 8.34375C11.3828 8.34375 12.3516 8.47656 13.3359 8.74219C14.3984 9.07031 15.3516 9.47656 16.1953 9.96094C17.1172 10.4766 17.9297 11.0547 18.6328 11.6953L14.5078 15.7969C13.3047 14.8906 11.9922 14.4375 10.5703 14.4375C8.86719 14.4375 8.01562 14.9141 8.01562 15.8672C8.01562 16.7266 8.64844 17.3281 9.91406 17.6719C11.3047 18.0469 12.7031 18.3984 14.1094 18.7266C15.6562 19.1172 16.9453 19.8359 17.9766 20.8828C19.0234 21.9453 19.5469 23.6172 19.5469 25.8984C19.5469 27.6016 19.0938 29.0703 18.1875 30.3047C17.2812 31.5547 16.0703 32.4844 14.5547 33.0938C13.0391 33.7344 11.4688 34.0547 9.84375 34.0547C8.48438 34.0547 7.25781 33.9453 6.16406 33.7266C5.07031 33.5234 4.04688 33.1797 3.09375 32.6953C2.10938 32.2109 1.07812 31.5625 0 30.75L3.79688 25.7344Z" fill="#02C39B"/>
<path d="M26.8097 15.6797H21.8644L23.5519 9.25781H26.8097V0.0234375L34.2863 0.0703125V9.25781H39.255L37.5909 15.6797H34.2863V23.625C34.2863 25.75 35.6144 26.8125 38.2706 26.8125C39.13 26.8125 39.7863 26.7109 40.2394 26.5078L38.0831 33.9609C37.6925 34.0234 37.3097 34.0547 36.9347 34.0547C34.7003 34.0547 32.8409 33.6953 31.3566 32.9766C29.8566 32.2578 28.7238 31.1719 27.9581 29.7188C27.1925 28.2812 26.8097 26.4453 26.8097 24.2109V15.6797Z" fill="#02C39B"/>
<path d="M52.635 18.1172C53.2131 17.1953 53.9866 16.4609 54.9553 15.9141C55.9241 15.3828 56.9475 15.1172 58.0256 15.1172C59.135 15.1172 60.1663 15.3828 61.1194 15.9141C62.0881 16.4609 62.8616 17.1953 63.4397 18.1172C64.0178 19.0391 64.3069 20.0469 64.3069 21.1406C64.3069 22.7969 63.6819 24.2266 62.4319 25.4297C61.1975 26.6172 59.7288 27.2109 58.0256 27.2109C56.3381 27.2109 54.8772 26.6172 53.6428 25.4297C52.3928 24.2266 51.7678 22.7969 51.7678 21.1406C51.7678 20.0469 52.0569 19.0391 52.635 18.1172ZM64.3303 33.2812L71.76 33.3516L71.7834 21.1406C71.7834 19.3125 71.4163 17.6094 70.6819 16.0312C69.9631 14.5 68.9475 13.1406 67.635 11.9531C66.385 10.7969 64.9163 9.90625 63.2288 9.28125C61.5413 8.65625 59.8069 8.34375 58.0256 8.34375C56.2288 8.34375 54.4944 8.66406 52.8225 9.30469C51.1506 9.91406 49.6819 10.7969 48.4163 11.9531C47.135 13.1094 46.1272 14.4688 45.3928 16.0312C44.6584 17.6094 44.2913 19.3125 44.2913 21.1406C44.2913 23.5625 44.9241 25.7578 46.1897 27.7266C47.4397 29.6641 49.1272 31.1953 51.2522 32.3203C53.3772 33.4297 55.635 33.9844 58.0256 33.9844C59.8381 33.9844 61.5725 33.6641 63.2288 33.0234C63.4631 32.9453 63.8303 32.7969 64.3303 32.5781V33.2812Z" fill="#02C39B"/>
<path d="M91.5619 36.0469H91.5384V36.2812C91.5228 36.3281 91.515 36.3672 91.515 36.3984C91.4994 36.6172 91.4603 36.7969 91.3978 36.9375L91.3041 37.2656L91.2572 37.3828L91.2337 37.4531C90.8744 38.3125 90.3353 38.9844 89.6166 39.4688C88.8509 40 88.0072 40.2656 87.0853 40.2656C85.8978 40.2656 84.8744 39.8594 84.015 39.0469C83.1556 38.2344 82.6947 37.2344 82.6322 36.0469L75.8587 40.0078C76.1712 41.0703 76.9837 42.2734 78.2962 43.6172C80.3119 45.6172 82.9916 46.6484 86.3353 46.7109H87.5775C89.0775 46.7109 90.5697 46.4453 92.0541 45.9141C93.6947 45.3203 94.9837 44.5547 95.9212 43.6172C97.9837 41.5234 99.015 39.0234 99.015 36.1172V9.30469L91.515 9.32812V22.7812C91.515 24.1875 91.1869 25.2578 90.5306 25.9922C89.8431 26.7266 88.9291 27.0938 87.7884 27.0938C86.6009 27.0938 85.6791 26.7344 85.0228 26.0156C84.3666 25.2812 84.0384 24.2031 84.0384 22.7812V9.30469H76.5384V23.2969C76.5384 31.125 80.2337 34.6484 87.6244 33.8672C88.8275 33.7578 90.14 33.4141 91.5619 32.8359V36.0469Z" fill="#02C39B"/>
<path d="M103.067 0.0234375L110.543 0V33.2344L103.067 33.3281V0.0234375Z" fill="#02C39B"/>
<circle cx="128" cy="20.2812" r="11.5" stroke="#02C39B" stroke-width="5"/>
<path d="M128 14.2812C125.794 14.2812 124 16.2195 124 18.6021C124 22.5502 127.491 25.0605 127.64 25.1653C127.749 25.2426 127.874 25.2812 128 25.2812C128.125 25.2812 128.251 25.2427 128.36 25.1654C128.509 25.0605 132 22.5502 132 18.6021C132 16.2195 130.205 14.2812 128 14.2812ZM127.999 23.6862C127.192 22.9952 125.316 21.1172 125.316 18.6021C125.316 17.0035 126.52 15.703 128 15.703C129.48 15.703 130.684 17.0035 130.684 18.6021C130.684 21.1058 128.805 22.9923 127.999 23.6862Z" fill="#02C39B"/>
</svg>
