<?xml version="1.0"?>
<svg xmlns="http://www.w3.org/2000/svg" xmlns:xlink="http://www.w3.org/1999/xlink" viewBox="0 0 512 512" width="512" height="512"><defs><linearGradient id="linear-gradient" x1="120.868" y1="476.077" x2="481.244" y2="115.7" gradientUnits="userSpaceOnUse"><stop offset="0" stop-color="#41dfd0"/><stop offset="1" stop-color="#ee83ef"/></linearGradient></defs><g id="gradient"><path d="M480,139.209v-14a26.029,26.029,0,0,0-26-26H314a26.029,26.029,0,0,0-26,26v230H227.7a31.787,31.787,0,0,0,3.292-8H264a8,8,0,0,0,8-8V307.858a19.976,19.976,0,0,0-13.675-18.974l-37.554-12.518-25.12-31.4a25.868,25.868,0,0,0-20.3-9.759h-9.583l-6.177-18.53a8,8,0,0,0-7.589-5.47H120a8,8,0,0,0-7.589,5.47l-6.177,18.53H96.651a25.87,25.87,0,0,0-20.3,9.758L51.44,276.1l-29.38,7.345A8,8,0,0,0,16,291.209v40a8,8,0,0,0,6.06,7.761l26.585,6.646a31.794,31.794,0,0,0,3.66,9.593H16v16H288v54a26.029,26.029,0,0,0,26,26H454a26.029,26.029,0,0,0,26-26v-54h16v-16H480Zm-320,112h15.349a9.948,9.948,0,0,1,7.808,3.754l16.2,20.246H144v-24Zm-34.234-24h20.468l2.666,8H123.1ZM88.843,254.962a9.95,9.95,0,0,1,7.808-3.753H128v24H72.645ZM80,355.209a16,16,0,1,1,16-16A16.019,16.019,0,0,1,80,355.209Zm27.695,0a31.787,31.787,0,0,0,3.292-8h58.026a31.787,31.787,0,0,0,3.292,8Zm92.305,0a16,16,0,1,1,16-16A16.019,16.019,0,0,1,200,355.209Zm0-48a32.056,32.056,0,0,0-30.987,24H110.987a32,32,0,0,0-61.427-1.856L32,324.963V297.455l24.983-6.246H214.7l38.563,12.853a4,4,0,0,1,2.736,3.8v23.351H230.987A32.056,32.056,0,0,0,200,307.209Zm264,118a10.011,10.011,0,0,1-10,10H314a10.011,10.011,0,0,1-10-10v-22H464Zm0-150H448v16h16v64H432v16h32v16H304v-16h32v-16H304v-32h8a24.028,24.028,0,0,0,24-24,8.009,8.009,0,0,1,8-8h12.686l21.657,21.657a8,8,0,0,0,11.314,0l21.657-21.657H432v-16h-4.686l1.372-1.372A65.511,65.511,0,0,0,448,227.209a64,64,0,0,0-128,0,65.511,65.511,0,0,0,19.314,46.628l1.58,1.58A24.031,24.031,0,0,0,320,299.209a8.009,8.009,0,0,1-8,8h-8v-160H464Zm-128-48a48,48,0,0,1,96,0,49.613,49.613,0,0,1-14.627,35.313L384,295.9l-33.373-33.374A49.613,49.613,0,0,1,336,227.209Zm128-96H304v-6a10.011,10.011,0,0,1,10-10H454a10.011,10.011,0,0,1,10,10Zm-48,96a32,32,0,1,0-32,32A32.036,32.036,0,0,0,416,227.209Zm-48,0a16,16,0,1,1,16,16A16.019,16.019,0,0,1,368,227.209Zm40,104a8,8,0,0,0-8-8H368a8,8,0,0,0-8,8v24h-8v16h64v-16h-8Zm-16,24H376v-16h16Zm-240-48h16v16H152v-8H136v8H120v-8H104v-16h16v8h16v-8h16Zm-8-136v24H128v-24ZM90.431,226.137l-20.785-12,8-13.856,20.785,12Zm91.138,0-8-13.856,20.785-12,8,13.856ZM269,48.585l6,14.83a55.883,55.883,0,0,0-34.564,58.819l-15.88,1.95a72.694,72.694,0,0,1-.558-8.836A71.723,71.723,0,0,1,269,48.585Zm3,66.763a24.145,24.145,0,0,0,.7,5.764l-15.535,3.826a40.012,40.012,0,0,1,28.84-48.33l3.988,15.5A23.982,23.982,0,0,0,272,115.348Z" style="fill:url(#linear-gradient)"/></g></svg>
