<svg width="48" height="24" viewBox="0 0 48 24" fill="none" xmlns="http://www.w3.org/2000/svg">
<path d="M43.684 6.218C43.485 5.98329 43.197 5.77004 42.836 5.59C42.4651 5.40263 42.0233 5.25398 41.5365 5.15269C41.0496 5.05141 40.5273 4.99951 40 5H16C15.406 5 14.844 5.132 14.462 5.359L4.46204 11.359C3.84404 11.73 3.84404 12.269 4.46204 12.64L14.462 18.64C14.844 18.868 15.406 19 16 19H40C40.5237 19.0012 41.0427 18.9504 41.5268 18.8505C42.0109 18.7506 42.4505 18.6036 42.82 18.418C43.1948 18.2325 43.4921 18.0116 43.6947 17.7682C43.8972 17.5248 44.001 17.2637 44 17V7C44 6.734 43.896 6.475 43.684 6.218Z" fill="#E12D2D"/>
<path d="M17.24 9.952H14.56V11.544C14.672 11.3947 14.8373 11.2693 15.056 11.168C15.28 11.0667 15.5173 11.016 15.768 11.016C16.216 11.016 16.5787 11.112 16.856 11.304C17.1387 11.496 17.3387 11.7387 17.456 12.032C17.5787 12.3253 17.64 12.6347 17.64 12.96C17.64 13.3547 17.5627 13.7067 17.408 14.016C17.2587 14.32 17.032 14.56 16.728 14.736C16.4293 14.912 16.0613 15 15.624 15C15.0427 15 14.576 14.856 14.224 14.568C13.872 14.28 13.6613 13.8987 13.592 13.424H14.48C14.5387 13.6747 14.6693 13.8747 14.872 14.024C15.0747 14.168 15.328 14.24 15.632 14.24C16.0107 14.24 16.2933 14.1253 16.48 13.896C16.672 13.6667 16.768 13.3627 16.768 12.984C16.768 12.6 16.672 12.3067 16.48 12.104C16.288 11.896 16.0053 11.792 15.632 11.792C15.3707 11.792 15.1493 11.8587 14.968 11.992C14.792 12.12 14.664 12.296 14.584 12.52H13.72V9.152H17.24V9.952ZM18.6294 12.008C18.6294 11.0853 18.784 10.3653 19.0934 9.848C19.408 9.32533 19.9467 9.064 20.7094 9.064C21.472 9.064 22.008 9.32533 22.3174 9.848C22.632 10.3653 22.7894 11.0853 22.7894 12.008C22.7894 12.9413 22.632 13.672 22.3174 14.2C22.008 14.7227 21.472 14.984 20.7094 14.984C19.9467 14.984 19.408 14.7227 19.0934 14.2C18.784 13.672 18.6294 12.9413 18.6294 12.008ZM21.8934 12.008C21.8934 11.576 21.864 11.2107 21.8054 10.912C21.752 10.6133 21.64 10.3707 21.4694 10.184C21.2987 9.992 21.0454 9.896 20.7094 9.896C20.3734 9.896 20.12 9.992 19.9494 10.184C19.7787 10.3707 19.664 10.6133 19.6054 10.912C19.552 11.2107 19.5254 11.576 19.5254 12.008C19.5254 12.456 19.552 12.832 19.6054 13.136C19.6587 13.44 19.7707 13.6853 19.9414 13.872C20.1174 14.0587 20.3734 14.152 20.7094 14.152C21.0454 14.152 21.2987 14.0587 21.4694 13.872C21.6454 13.6853 21.76 13.44 21.8134 13.136C21.8667 12.832 21.8934 12.456 21.8934 12.008ZM23.6504 10.576C23.6504 10.1867 23.7624 9.88267 23.9864 9.664C24.2157 9.44 24.509 9.328 24.8664 9.328C25.2237 9.328 25.5144 9.44 25.7384 9.664C25.9677 9.88267 26.0824 10.1867 26.0824 10.576C26.0824 10.9653 25.9677 11.272 25.7384 11.496C25.5144 11.72 25.2237 11.832 24.8664 11.832C24.509 11.832 24.2157 11.72 23.9864 11.496C23.7624 11.272 23.6504 10.9653 23.6504 10.576ZM28.5304 9.432L25.3384 15H24.4424L27.6344 9.432H28.5304ZM24.8664 9.88C24.5304 9.88 24.3624 10.112 24.3624 10.576C24.3624 11.0453 24.5304 11.28 24.8664 11.28C25.0264 11.28 25.149 11.224 25.2344 11.112C25.325 10.9947 25.3704 10.816 25.3704 10.576C25.3704 10.112 25.2024 9.88 24.8664 9.88ZM26.9064 13.848C26.9064 13.4587 27.0184 13.1547 27.2424 12.936C27.4717 12.712 27.765 12.6 28.1224 12.6C28.4744 12.6 28.7624 12.712 28.9864 12.936C29.2157 13.1547 29.3304 13.4587 29.3304 13.848C29.3304 14.2373 29.2157 14.544 28.9864 14.768C28.7624 14.992 28.4744 15.104 28.1224 15.104C27.765 15.104 27.4717 14.992 27.2424 14.768C27.0184 14.544 26.9064 14.2373 26.9064 13.848ZM28.1144 13.152C27.7784 13.152 27.6104 13.384 27.6104 13.848C27.6104 14.312 27.7784 14.544 28.1144 14.544C28.4504 14.544 28.6184 14.312 28.6184 13.848C28.6184 13.384 28.4504 13.152 28.1144 13.152ZM34.3361 15.072C33.9201 15.072 33.5441 14.9787 33.2081 14.792C32.8721 14.6 32.6081 14.3333 32.4161 13.992C32.2241 13.6453 32.1281 13.2453 32.1281 12.792C32.1281 12.344 32.2267 11.9467 32.4241 11.6C32.6214 11.2533 32.8907 10.9867 33.2321 10.8C33.5734 10.6133 33.9547 10.52 34.3761 10.52C34.7974 10.52 35.1787 10.6133 35.5201 10.8C35.8614 10.9867 36.1307 11.2533 36.3281 11.6C36.5254 11.9467 36.6241 12.344 36.6241 12.792C36.6241 13.24 36.5227 13.6373 36.3201 13.984C36.1174 14.3307 35.8401 14.6 35.4881 14.792C35.1414 14.9787 34.7574 15.072 34.3361 15.072ZM34.3361 14.28C34.5707 14.28 34.7894 14.224 34.9921 14.112C35.2001 14 35.3681 13.832 35.4961 13.608C35.6241 13.384 35.6881 13.112 35.6881 12.792C35.6881 12.472 35.6267 12.2027 35.5041 11.984C35.3814 11.76 35.2187 11.592 35.0161 11.48C34.8134 11.368 34.5947 11.312 34.3601 11.312C34.1254 11.312 33.9067 11.368 33.7041 11.48C33.5067 11.592 33.3494 11.76 33.2321 11.984C33.1147 12.2027 33.0561 12.472 33.0561 12.792C33.0561 13.2667 33.1761 13.6347 33.4161 13.896C33.6614 14.152 33.9681 14.28 34.3361 14.28ZM39.4136 11.336H38.5976V15H37.6776V11.336H37.1576V10.592H37.6776V10.28C37.6776 9.77333 37.811 9.40533 38.0776 9.176C38.3496 8.94133 38.7736 8.824 39.3496 8.824V9.584C39.0723 9.584 38.8776 9.63733 38.7656 9.744C38.6536 9.84533 38.5976 10.024 38.5976 10.28V10.592H39.4136V11.336ZM42.1099 11.336H41.2939V15H40.3739V11.336H39.8539V10.592H40.3739V10.28C40.3739 9.77333 40.5072 9.40533 40.7739 9.176C41.0459 8.94133 41.4699 8.824 42.0459 8.824V9.584C41.7685 9.584 41.5739 9.63733 41.4619 9.744C41.3499 9.84533 41.2939 10.024 41.2939 10.28V10.592H42.1099V11.336Z" fill="white"/>
</svg>
