<svg width="24" height="24" viewBox="0 0 24 24" fill="none" xmlns="http://www.w3.org/2000/svg">
<path d="M20.274 9.86901L16.832 4.95401L18.471 3.80701L21.912 8.72201L20.274 9.86901Z" fill="#6F6F6F"/>
<path d="M18.39 12.409L16.67 9.95003L8.47805 15.686L10.198 18.143L8.56005 19.291L3.97205 12.737L5.61005 11.59L7.33005 14.048L15.522 8.31203L13.802 5.85403L15.44 4.70703L20.028 11.26L18.39 12.408V12.409Z" fill="#6F6F6F"/>
<path d="M20.765 7.08303L22.403 5.93603L21.256 4.29803L19.618 5.44503L20.765 7.08303Z" fill="#6F6F6F"/>
<path d="M7.16801 19.046L3.72601 14.131L2.08801 15.278L5.52901 20.193L7.16801 19.046Z" fill="#6F6F6F"/>
<path d="M4.38205 18.555L2.74405 19.702L1.59705 18.064L3.23505 16.917L4.38205 18.555Z" fill="#6F6F6F"/>
</svg>
