<svg width="25" height="25" viewBox="0 0 25 25" fill="none" xmlns="http://www.w3.org/2000/svg">
<path d="M23.6155 20.5H15.5V22.5H23.6985C23.8792 22.5089 24.0575 22.4554 24.2035 22.3484C24.3494 22.2414 24.4541 22.0875 24.5 21.9125V21.4275C24.5 21.4275 24.494 20.5 23.6155 20.5ZM22.493 20.105C23.0257 20.1042 23.5364 19.892 23.9127 19.5149C24.289 19.1378 24.5003 18.6267 24.5 18.094C24.5 16.9805 23.6 16.0825 22.493 16.0825C22.2294 16.083 21.9684 16.1354 21.7251 16.2367C21.4817 16.3381 21.2607 16.4864 21.0747 16.6732C20.8887 16.86 20.7413 17.0816 20.641 17.3254C20.5406 17.5692 20.4893 17.8304 20.49 18.094C20.49 19.2035 21.3875 20.105 22.493 20.105ZM18.266 20C19.319 20 20.166 19.258 20.166 18.2065C20.1655 17.157 19.3155 16.6065 18.2705 16.5985L15.5 16.9495V20H18.266ZM9.2615 6.9665C10.491 6.9665 11.4855 5.9665 11.4855 4.733C11.4855 3.4995 10.491 2.5 9.2615 2.5C8.033 2.5 7.037 3.4995 7.037 4.733C7.037 5.9665 8.033 6.9665 9.2615 6.9665ZM6.9905 14.1945L6.9705 14.1655L5.9625 11.8185L5.961 16.5H8.9735L9.6315 15.8L7.847 15.113C7.424 14.954 7.1235 14.594 6.9905 14.1945ZM7.629 13.984C7.7265 14.203 7.907 14.3805 8.134 14.462L11.5725 15.7365C11.6773 15.7826 11.7901 15.8076 11.9045 15.8099C12.0189 15.8123 12.1327 15.792 12.2393 15.7503C12.3459 15.7086 12.4432 15.6462 12.5256 15.5668C12.608 15.4874 12.6739 15.3925 12.7195 15.2875C12.8126 15.0748 12.8177 14.8339 12.7338 14.6174C12.6498 14.4009 12.4837 14.2264 12.2715 14.132L9.099 12.934L8.119 10.5835L8.758 10.3455L9.5885 12.3595L12 13.2535V10.7925L13.28 11.554L13.918 14.768C13.9547 14.8767 14.0127 14.9771 14.0884 15.0633C14.1642 15.1496 14.2563 15.2199 14.3595 15.2703C14.4626 15.3207 14.5747 15.3502 14.6893 15.357C14.8038 15.3638 14.9186 15.3478 15.027 15.31C15.2452 15.2324 15.4241 15.0718 15.5247 14.8632C15.6253 14.6545 15.6396 14.4146 15.5645 14.1955L14.8495 11.1C14.8027 10.9286 14.7046 10.7757 14.5685 10.6615C14.202 10.2555 12.3485 8.183 12.2165 8.0445C12.023 7.8505 11.5805 7.5 10.7445 7.5H7.7445C6.0395 7.5 5.7115 9.24 6.06 10.125L7.629 13.984ZM15 17H1.4835C0.9915 17 0.5 17.2775 0.5 17.888V22.5H15V17Z" fill="#6F6F6F"/>
</svg>
